solid OpenSCAD_Model
  facet normal -1 0 0
    outer loop
      vertex -10 -5 0
      vertex -10 5 1
      vertex -10 5 0
    endloop
  endfacet
  facet normal -1 -0 0
    outer loop
      vertex -10 5 1
      vertex -10 -5 0
      vertex -10 -5 1
    endloop
  endfacet
  facet normal -0 0 1
    outer loop
      vertex -9.65 -2.50981 1
      vertex -9 -4 1
      vertex -9.35 -2.50981 1
    endloop
  endfacet
  facet normal 0 0 1
    outer loop
      vertex -9 -4 1
      vertex -9.35 -4.24019 1
      vertex -9.2 -4.5 1
    endloop
  endfacet
  facet normal 0 0 1
    outer loop
      vertex -9.65 -4.24019 1
      vertex -9 -4 1
      vertex -9.65 -2.50981 1
    endloop
  endfacet
  facet normal 0 0 1
    outer loop
      vertex -9 -4 1
      vertex -9.65 -4.24019 1
      vertex -9.35 -4.24019 1
    endloop
  endfacet
  facet normal 0 0 1
    outer loop
      vertex -9.8 -2.25 1
      vertex -9.65 -4.24019 1
      vertex -9.65 -2.50981 1
    endloop
  endfacet
  facet normal 0 0 1
    outer loop
      vertex -9.65 -4.24019 1
      vertex -9.8 -2.25 1
      vertex -9.8 -4.5 1
    endloop
  endfacet
  facet normal -0 0 1
    outer loop
      vertex -9.35 -0.259809 1
      vertex -9.2 -2.25 1
      vertex -9.2 0 1
    endloop
  endfacet
  facet normal 0 0 1
    outer loop
      vertex -9.35 -0.259809 1
      vertex -9.35 -1.99019 1
      vertex -9.2 -2.25 1
    endloop
  endfacet
  facet normal -0 0 1
    outer loop
      vertex -9.65 -0.259809 1
      vertex -9.35 -1.99019 1
      vertex -9.35 -0.259809 1
    endloop
  endfacet
  facet normal 0 0 1
    outer loop
      vertex -9.65 -0.259809 1
      vertex -9.65 -1.99019 1
      vertex -9.35 -1.99019 1
    endloop
  endfacet
  facet normal 0 0 1
    outer loop
      vertex -9.8 0 1
      vertex -9.65 -1.99019 1
      vertex -9.65 -0.259809 1
    endloop
  endfacet
  facet normal 0 0 1
    outer loop
      vertex -9.65 -1.99019 1
      vertex -9.8 0 1
      vertex -9.8 -2.25 1
    endloop
  endfacet
  facet normal -0 0 1
    outer loop
      vertex -9.35 1.99019 1
      vertex -9.2 0 1
      vertex -9.2 2.25 1
    endloop
  endfacet
  facet normal 0 0 1
    outer loop
      vertex -9.35 1.99019 1
      vertex -9.35 0.259808 1
      vertex -9.2 0 1
    endloop
  endfacet
  facet normal -0 0 1
    outer loop
      vertex -9.65 1.99019 1
      vertex -9.35 0.259808 1
      vertex -9.35 1.99019 1
    endloop
  endfacet
  facet normal 0 0 1
    outer loop
      vertex -9.65 1.99019 1
      vertex -9.65 0.259808 1
      vertex -9.35 0.259808 1
    endloop
  endfacet
  facet normal 0 0 1
    outer loop
      vertex -9.8 2.25 1
      vertex -9.65 0.259808 1
      vertex -9.65 1.99019 1
    endloop
  endfacet
  facet normal 0 0 1
    outer loop
      vertex -9.65 0.259808 1
      vertex -9.8 2.25 1
      vertex -9.8 0 1
    endloop
  endfacet
  facet normal -0 0 1
    outer loop
      vertex -9.65 4.24019 1
      vertex -9 4 1
      vertex -9.35 4.24019 1
    endloop
  endfacet
  facet normal 0 0 1
    outer loop
      vertex -9 4 1
      vertex -9.35 2.50981 1
      vertex -9.2 2.25 1
    endloop
  endfacet
  facet normal 0 0 1
    outer loop
      vertex -9.65 2.50981 1
      vertex -9 4 1
      vertex -9.65 4.24019 1
    endloop
  endfacet
  facet normal 0 0 1
    outer loop
      vertex -9 4 1
      vertex -9.65 2.50981 1
      vertex -9.35 2.50981 1
    endloop
  endfacet
  facet normal 0 0 1
    outer loop
      vertex -9.8 4.5 1
      vertex -9.65 2.50981 1
      vertex -9.65 4.24019 1
    endloop
  endfacet
  facet normal 0 0 1
    outer loop
      vertex -9.65 2.50981 1
      vertex -9.8 4.5 1
      vertex -9.8 2.25 1
    endloop
  endfacet
  facet normal 0 0 1
    outer loop
      vertex 9 -4 1
      vertex 7.275 -4.24019 1
      vertex 7.425 -4.5 1
    endloop
  endfacet
  facet normal 0 0 1
    outer loop
      vertex 9 -4 1
      vertex 6.975 -4.24019 1
      vertex 7.275 -4.24019 1
    endloop
  endfacet
  facet normal 0 0 1
    outer loop
      vertex 6.975 -4.24019 1
      vertex 5.05 -4.5 1
      vertex 6.825 -4.5 1
    endloop
  endfacet
  facet normal 0 0 1
    outer loop
      vertex 6.975 -4.24019 1
      vertex 4.9 -4.24019 1
      vertex 5.05 -4.5 1
    endloop
  endfacet
  facet normal 0 0 1
    outer loop
      vertex 9 -4 1
      vertex 4.9 -4.24019 1
      vertex 6.975 -4.24019 1
    endloop
  endfacet
  facet normal 0 0 1
    outer loop
      vertex 9 -4 1
      vertex 4.6 -4.24019 1
      vertex 4.9 -4.24019 1
    endloop
  endfacet
  facet normal 0 0 1
    outer loop
      vertex 4.6 -4.24019 1
      vertex 2.675 -4.5 1
      vertex 4.45 -4.5 1
    endloop
  endfacet
  facet normal 0 0 1
    outer loop
      vertex 4.6 -4.24019 1
      vertex 2.525 -4.24019 1
      vertex 2.675 -4.5 1
    endloop
  endfacet
  facet normal 0 0 1
    outer loop
      vertex 9 -4 1
      vertex 2.525 -4.24019 1
      vertex 4.6 -4.24019 1
    endloop
  endfacet
  facet normal 0 0 1
    outer loop
      vertex 9 -4 1
      vertex 2.225 -4.24019 1
      vertex 2.525 -4.24019 1
    endloop
  endfacet
  facet normal 0 0 1
    outer loop
      vertex 2.225 -4.24019 1
      vertex 0.299999 -4.5 1
      vertex 2.075 -4.5 1
    endloop
  endfacet
  facet normal 0 0 1
    outer loop
      vertex 2.225 -4.24019 1
      vertex 0.15 -4.24019 1
      vertex 0.299999 -4.5 1
    endloop
  endfacet
  facet normal 0 0 1
    outer loop
      vertex 9 -4 1
      vertex 0.15 -4.24019 1
      vertex 2.225 -4.24019 1
    endloop
  endfacet
  facet normal 0 0 1
    outer loop
      vertex 9 -4 1
      vertex -0.150001 -4.24019 1
      vertex 0.15 -4.24019 1
    endloop
  endfacet
  facet normal 0 0 1
    outer loop
      vertex -0.150001 -4.24019 1
      vertex -2.075 -4.5 1
      vertex -0.3 -4.5 1
    endloop
  endfacet
  facet normal 0 0 1
    outer loop
      vertex -0.150001 -4.24019 1
      vertex -2.225 -4.24019 1
      vertex -2.075 -4.5 1
    endloop
  endfacet
  facet normal 0 0 1
    outer loop
      vertex 9 -4 1
      vertex -2.225 -4.24019 1
      vertex -0.150001 -4.24019 1
    endloop
  endfacet
  facet normal -0 0 1
    outer loop
      vertex -9 -4 1
      vertex -2.225 -4.24019 1
      vertex 9 -4 1
    endloop
  endfacet
  facet normal 0 0 1
    outer loop
      vertex -2.525 -4.24019 1
      vertex -4.45 -4.5 1
      vertex -2.675 -4.5 1
    endloop
  endfacet
  facet normal 0 0 1
    outer loop
      vertex -2.525 -4.24019 1
      vertex -4.6 -4.24019 1
      vertex -4.45 -4.5 1
    endloop
  endfacet
  facet normal 0 0 1
    outer loop
      vertex -2.225 -4.24019 1
      vertex -9 -4 1
      vertex -2.525 -4.24019 1
    endloop
  endfacet
  facet normal 0 0 1
    outer loop
      vertex -2.525 -4.24019 1
      vertex -9 -4 1
      vertex -4.6 -4.24019 1
    endloop
  endfacet
  facet normal 0 0 1
    outer loop
      vertex -4.9 -4.24019 1
      vertex -6.825 -4.5 1
      vertex -5.05 -4.5 1
    endloop
  endfacet
  facet normal 0 0 1
    outer loop
      vertex -4.9 -4.24019 1
      vertex -6.975 -4.24019 1
      vertex -6.825 -4.5 1
    endloop
  endfacet
  facet normal 0 0 1
    outer loop
      vertex -4.6 -4.24019 1
      vertex -9 -4 1
      vertex -4.9 -4.24019 1
    endloop
  endfacet
  facet normal 0 0 1
    outer loop
      vertex -4.9 -4.24019 1
      vertex -9 -4 1
      vertex -6.975 -4.24019 1
    endloop
  endfacet
  facet normal 0 0 1
    outer loop
      vertex -7.275 -4.24019 1
      vertex -9 -4 1
      vertex -7.425 -4.5 1
    endloop
  endfacet
  facet normal 0 0 1
    outer loop
      vertex -6.975 -4.24019 1
      vertex -9 -4 1
      vertex -7.275 -4.24019 1
    endloop
  endfacet
  facet normal -0 0 1
    outer loop
      vertex 9.65 -2.50981 1
      vertex 9.8 -4.5 1
      vertex 9.8 -2.25 1
    endloop
  endfacet
  facet normal 0 0 1
    outer loop
      vertex 9.65 -2.50981 1
      vertex 9.65 -4.24019 1
      vertex 9.8 -4.5 1
    endloop
  endfacet
  facet normal 0 0 1
    outer loop
      vertex 9 -4 1
      vertex 9.65 -2.50981 1
      vertex 9.35 -2.50981 1
    endloop
  endfacet
  facet normal 0 0 1
    outer loop
      vertex 9.65 -2.50981 1
      vertex 9 -4 1
      vertex 9.65 -4.24019 1
    endloop
  endfacet
  facet normal 0 0 1
    outer loop
      vertex 9 -4 1
      vertex 9.35 -2.50981 1
      vertex 9.2 -2.25 1
    endloop
  endfacet
  facet normal 0 0 1
    outer loop
      vertex 9.65 -4.24019 1
      vertex 9 -4 1
      vertex 9.35 -4.24019 1
    endloop
  endfacet
  facet normal -0 0 1
    outer loop
      vertex 9.65 -0.259809 1
      vertex 9.8 -2.25 1
      vertex 9.8 0 1
    endloop
  endfacet
  facet normal 0 0 1
    outer loop
      vertex 9.65 -0.259809 1
      vertex 9.65 -1.99019 1
      vertex 9.8 -2.25 1
    endloop
  endfacet
  facet normal -0 0 1
    outer loop
      vertex 9.35 -0.259809 1
      vertex 9.65 -1.99019 1
      vertex 9.65 -0.259809 1
    endloop
  endfacet
  facet normal 0 0 1
    outer loop
      vertex 9.35 -0.259809 1
      vertex 9.35 -1.99019 1
      vertex 9.65 -1.99019 1
    endloop
  endfacet
  facet normal 0 0 1
    outer loop
      vertex 9.2 0 1
      vertex 9.35 -1.99019 1
      vertex 9.35 -0.259809 1
    endloop
  endfacet
  facet normal 0 0 1
    outer loop
      vertex 9.35 -1.99019 1
      vertex 9.2 0 1
      vertex 9.2 -2.25 1
    endloop
  endfacet
  facet normal -0 0 1
    outer loop
      vertex 9.65 1.99019 1
      vertex 9.8 0 1
      vertex 9.8 2.25 1
    endloop
  endfacet
  facet normal 0 0 1
    outer loop
      vertex 9.65 1.99019 1
      vertex 9.65 0.259808 1
      vertex 9.8 0 1
    endloop
  endfacet
  facet normal -0 0 1
    outer loop
      vertex 9.35 1.99019 1
      vertex 9.65 0.259808 1
      vertex 9.65 1.99019 1
    endloop
  endfacet
  facet normal 0 0 1
    outer loop
      vertex 9.35 1.99019 1
      vertex 9.35 0.259808 1
      vertex 9.65 0.259808 1
    endloop
  endfacet
  facet normal 0 0 1
    outer loop
      vertex 9.2 2.25 1
      vertex 9.35 0.259808 1
      vertex 9.35 1.99019 1
    endloop
  endfacet
  facet normal 0 0 1
    outer loop
      vertex 9.35 0.259808 1
      vertex 9.2 2.25 1
      vertex 9.2 0 1
    endloop
  endfacet
  facet normal -0 0 1
    outer loop
      vertex 9.65 4.24019 1
      vertex 9.8 2.25 1
      vertex 9.8 4.5 1
    endloop
  endfacet
  facet normal 0 0 1
    outer loop
      vertex 9.65 4.24019 1
      vertex 9.65 2.50981 1
      vertex 9.8 2.25 1
    endloop
  endfacet
  facet normal 0 0 1
    outer loop
      vertex 9 4 1
      vertex 9.65 4.24019 1
      vertex 9.35 4.24019 1
    endloop
  endfacet
  facet normal 0 0 1
    outer loop
      vertex 9.65 4.24019 1
      vertex 9 4 1
      vertex 9.65 2.50981 1
    endloop
  endfacet
  facet normal 0 0 1
    outer loop
      vertex 9 4 1
      vertex 9.35 4.24019 1
      vertex 9.2 4.5 1
    endloop
  endfacet
  facet normal 0 0 1
    outer loop
      vertex 9.65 2.50981 1
      vertex 9 4 1
      vertex 9.35 2.50981 1
    endloop
  endfacet
  facet normal 0 0 1
    outer loop
      vertex 9.8 2.25 1
      vertex 10 5 1
      vertex 9.8 4.5 1
    endloop
  endfacet
  facet normal 0 0 1
    outer loop
      vertex 10 5 1
      vertex 9.65 4.75981 1
      vertex 9.8 4.5 1
    endloop
  endfacet
  facet normal 0 0 1
    outer loop
      vertex 10 5 1
      vertex 9.35 4.75981 1
      vertex 9.65 4.75981 1
    endloop
  endfacet
  facet normal 0 0 1
    outer loop
      vertex 9.35 2.50981 1
      vertex 9 4 1
      vertex 9.2 2.25 1
    endloop
  endfacet
  facet normal 0 0 1
    outer loop
      vertex 9.2 2.25 1
      vertex 9 4 1
      vertex 9.2 0 1
    endloop
  endfacet
  facet normal 0 0 1
    outer loop
      vertex 9 -4 1
      vertex 9.2 0 1
      vertex 9 4 1
    endloop
  endfacet
  facet normal 0 0 1
    outer loop
      vertex 9.2 0 1
      vertex 9 -4 1
      vertex 9.2 -2.25 1
    endloop
  endfacet
  facet normal 0 0 1
    outer loop
      vertex 9.2 4.5 1
      vertex 7.425 4.5 1
      vertex 9 4 1
    endloop
  endfacet
  facet normal 0 0 1
    outer loop
      vertex 9.35 4.75981 1
      vertex 7.425 4.5 1
      vertex 9.2 4.5 1
    endloop
  endfacet
  facet normal 0 0 1
    outer loop
      vertex 7.275 4.75981 1
      vertex 9.35 4.75981 1
      vertex 10 5 1
    endloop
  endfacet
  facet normal 0 0 1
    outer loop
      vertex 9.35 4.75981 1
      vertex 7.275 4.75981 1
      vertex 7.425 4.5 1
    endloop
  endfacet
  facet normal 0 0 1
    outer loop
      vertex 10 5 1
      vertex 6.975 4.75981 1
      vertex 7.275 4.75981 1
    endloop
  endfacet
  facet normal 0 0 1
    outer loop
      vertex 6.975 4.75981 1
      vertex 5.05 4.5 1
      vertex 6.825 4.5 1
    endloop
  endfacet
  facet normal 0 0 1
    outer loop
      vertex 6.975 4.75981 1
      vertex 4.9 4.75981 1
      vertex 5.05 4.5 1
    endloop
  endfacet
  facet normal 0 0 1
    outer loop
      vertex 10 5 1
      vertex 4.9 4.75981 1
      vertex 6.975 4.75981 1
    endloop
  endfacet
  facet normal 0 0 1
    outer loop
      vertex 10 5 1
      vertex 4.6 4.75981 1
      vertex 4.9 4.75981 1
    endloop
  endfacet
  facet normal 0 0 1
    outer loop
      vertex 4.6 4.75981 1
      vertex 2.675 4.5 1
      vertex 4.45 4.5 1
    endloop
  endfacet
  facet normal 0 0 1
    outer loop
      vertex 4.6 4.75981 1
      vertex 2.525 4.75981 1
      vertex 2.675 4.5 1
    endloop
  endfacet
  facet normal 0 0 1
    outer loop
      vertex 10 5 1
      vertex 2.525 4.75981 1
      vertex 4.6 4.75981 1
    endloop
  endfacet
  facet normal 0 0 1
    outer loop
      vertex 10 5 1
      vertex 2.225 4.75981 1
      vertex 2.525 4.75981 1
    endloop
  endfacet
  facet normal 0 0 1
    outer loop
      vertex 2.225 4.75981 1
      vertex 0.299999 4.5 1
      vertex 2.075 4.5 1
    endloop
  endfacet
  facet normal 0 0 1
    outer loop
      vertex 2.225 4.75981 1
      vertex 0.15 4.75981 1
      vertex 0.299999 4.5 1
    endloop
  endfacet
  facet normal 0 0 1
    outer loop
      vertex 10 5 1
      vertex 0.15 4.75981 1
      vertex 2.225 4.75981 1
    endloop
  endfacet
  facet normal 0 0 1
    outer loop
      vertex 10 5 1
      vertex -0.150001 4.75981 1
      vertex 0.15 4.75981 1
    endloop
  endfacet
  facet normal 0 0 1
    outer loop
      vertex -0.150001 4.75981 1
      vertex -2.075 4.5 1
      vertex -0.3 4.5 1
    endloop
  endfacet
  facet normal 0 0 1
    outer loop
      vertex -0.150001 4.75981 1
      vertex -2.225 4.75981 1
      vertex -2.075 4.5 1
    endloop
  endfacet
  facet normal 0 0 1
    outer loop
      vertex 10 5 1
      vertex -2.225 4.75981 1
      vertex -0.150001 4.75981 1
    endloop
  endfacet
  facet normal -0 0 1
    outer loop
      vertex -10 5 1
      vertex -2.225 4.75981 1
      vertex 10 5 1
    endloop
  endfacet
  facet normal 0 0 1
    outer loop
      vertex -2.525 4.75981 1
      vertex -4.45 4.5 1
      vertex -2.675 4.5 1
    endloop
  endfacet
  facet normal 0 0 1
    outer loop
      vertex -2.525 4.75981 1
      vertex -4.6 4.75981 1
      vertex -4.45 4.5 1
    endloop
  endfacet
  facet normal 0 0 1
    outer loop
      vertex -2.225 4.75981 1
      vertex -10 5 1
      vertex -2.525 4.75981 1
    endloop
  endfacet
  facet normal 0 0 1
    outer loop
      vertex -2.525 4.75981 1
      vertex -10 5 1
      vertex -4.6 4.75981 1
    endloop
  endfacet
  facet normal 0 0 1
    outer loop
      vertex -4.9 4.75981 1
      vertex -6.825 4.5 1
      vertex -5.05 4.5 1
    endloop
  endfacet
  facet normal 0 0 1
    outer loop
      vertex -4.9 4.75981 1
      vertex -6.975 4.75981 1
      vertex -6.825 4.5 1
    endloop
  endfacet
  facet normal 0 0 1
    outer loop
      vertex -4.6 4.75981 1
      vertex -10 5 1
      vertex -4.9 4.75981 1
    endloop
  endfacet
  facet normal 0 0 1
    outer loop
      vertex -4.9 4.75981 1
      vertex -10 5 1
      vertex -6.975 4.75981 1
    endloop
  endfacet
  facet normal 0 0 1
    outer loop
      vertex -9.2 4.5 1
      vertex -7.425 4.5 1
      vertex -7.275 4.75981 1
    endloop
  endfacet
  facet normal -0 0 1
    outer loop
      vertex -9.35 4.24019 1
      vertex -9 4 1
      vertex -9.2 4.5 1
    endloop
  endfacet
  facet normal 0 0 1
    outer loop
      vertex -7.425 4.5 1
      vertex -9.2 4.5 1
      vertex -9 4 1
    endloop
  endfacet
  facet normal 0 0 1
    outer loop
      vertex -7.275 4.75981 1
      vertex -9.35 4.75981 1
      vertex -9.2 4.5 1
    endloop
  endfacet
  facet normal 0 0 1
    outer loop
      vertex -6.975 4.75981 1
      vertex -10 5 1
      vertex -7.275 4.75981 1
    endloop
  endfacet
  facet normal 0 0 1
    outer loop
      vertex -7.275 4.75981 1
      vertex -10 5 1
      vertex -9.35 4.75981 1
    endloop
  endfacet
  facet normal 0 0 1
    outer loop
      vertex -10 5 1
      vertex -9.8 2.25 1
      vertex -9.8 4.5 1
    endloop
  endfacet
  facet normal 0 0 1
    outer loop
      vertex -9.8 2.25 1
      vertex -10 5 1
      vertex -9.8 0 1
    endloop
  endfacet
  facet normal 0 0 1
    outer loop
      vertex -10 -5 1
      vertex -9.8 0 1
      vertex -10 5 1
    endloop
  endfacet
  facet normal 0 0 1
    outer loop
      vertex -9.8 0 1
      vertex -10 -5 1
      vertex -9.8 -2.25 1
    endloop
  endfacet
  facet normal 0 0 1
    outer loop
      vertex -9.65 4.75981 1
      vertex -10 5 1
      vertex -9.8 4.5 1
    endloop
  endfacet
  facet normal 0 0 1
    outer loop
      vertex -9.35 4.75981 1
      vertex -10 5 1
      vertex -9.65 4.75981 1
    endloop
  endfacet
  facet normal 0 0 1
    outer loop
      vertex 9.8 0 1
      vertex 10 5 1
      vertex 9.8 2.25 1
    endloop
  endfacet
  facet normal 0 0 1
    outer loop
      vertex 10 5 1
      vertex 9.8 0 1
      vertex 10 -5 1
    endloop
  endfacet
  facet normal -0 0 1
    outer loop
      vertex 9.8 -2.25 1
      vertex 10 -5 1
      vertex 9.8 0 1
    endloop
  endfacet
  facet normal -0 0 1
    outer loop
      vertex 9.8 -4.5 1
      vertex 10 -5 1
      vertex 9.8 -2.25 1
    endloop
  endfacet
  facet normal -0 0 1
    outer loop
      vertex 9.65 -4.75981 1
      vertex 10 -5 1
      vertex 9.8 -4.5 1
    endloop
  endfacet
  facet normal -0 0 1
    outer loop
      vertex 9.35 -4.75981 1
      vertex 10 -5 1
      vertex 9.65 -4.75981 1
    endloop
  endfacet
  facet normal 0 0 1
    outer loop
      vertex 9.35 -4.24019 1
      vertex 9 -4 1
      vertex 9.2 -4.5 1
    endloop
  endfacet
  facet normal 0 0 1
    outer loop
      vertex 7.425 -4.5 1
      vertex 9.2 -4.5 1
      vertex 9 -4 1
    endloop
  endfacet
  facet normal -0 0 1
    outer loop
      vertex 7.425 -4.5 1
      vertex 9.35 -4.75981 1
      vertex 9.2 -4.5 1
    endloop
  endfacet
  facet normal 0 0 1
    outer loop
      vertex 7.275 -4.75981 1
      vertex 9.35 -4.75981 1
      vertex 7.425 -4.5 1
    endloop
  endfacet
  facet normal 0 0 1
    outer loop
      vertex 9.35 -4.75981 1
      vertex 7.275 -4.75981 1
      vertex 10 -5 1
    endloop
  endfacet
  facet normal -0 0 1
    outer loop
      vertex 6.975 -4.75981 1
      vertex 10 -5 1
      vertex 7.275 -4.75981 1
    endloop
  endfacet
  facet normal -0 0 1
    outer loop
      vertex 5.05 -4.5 1
      vertex 6.975 -4.75981 1
      vertex 6.825 -4.5 1
    endloop
  endfacet
  facet normal 0 0 1
    outer loop
      vertex 4.9 -4.75981 1
      vertex 6.975 -4.75981 1
      vertex 5.05 -4.5 1
    endloop
  endfacet
  facet normal -0 0 1
    outer loop
      vertex 4.9 -4.75981 1
      vertex 10 -5 1
      vertex 6.975 -4.75981 1
    endloop
  endfacet
  facet normal -0 0 1
    outer loop
      vertex 4.6 -4.75981 1
      vertex 10 -5 1
      vertex 4.9 -4.75981 1
    endloop
  endfacet
  facet normal -0 0 1
    outer loop
      vertex 2.675 -4.5 1
      vertex 4.6 -4.75981 1
      vertex 4.45 -4.5 1
    endloop
  endfacet
  facet normal 0 0 1
    outer loop
      vertex 2.525 -4.75981 1
      vertex 4.6 -4.75981 1
      vertex 2.675 -4.5 1
    endloop
  endfacet
  facet normal -0 0 1
    outer loop
      vertex 2.525 -4.75981 1
      vertex 10 -5 1
      vertex 4.6 -4.75981 1
    endloop
  endfacet
  facet normal -0 0 1
    outer loop
      vertex 2.225 -4.75981 1
      vertex 10 -5 1
      vertex 2.525 -4.75981 1
    endloop
  endfacet
  facet normal -0 0 1
    outer loop
      vertex 0.299999 -4.5 1
      vertex 2.225 -4.75981 1
      vertex 2.075 -4.5 1
    endloop
  endfacet
  facet normal 0 0 1
    outer loop
      vertex 0.15 -4.75981 1
      vertex 2.225 -4.75981 1
      vertex 0.299999 -4.5 1
    endloop
  endfacet
  facet normal -0 0 1
    outer loop
      vertex 0.15 -4.75981 1
      vertex 10 -5 1
      vertex 2.225 -4.75981 1
    endloop
  endfacet
  facet normal -0 0 1
    outer loop
      vertex -0.150001 -4.75981 1
      vertex 10 -5 1
      vertex 0.15 -4.75981 1
    endloop
  endfacet
  facet normal -0 0 1
    outer loop
      vertex -2.075 -4.5 1
      vertex -0.150001 -4.75981 1
      vertex -0.3 -4.5 1
    endloop
  endfacet
  facet normal 0 0 1
    outer loop
      vertex -2.225 -4.75981 1
      vertex -0.150001 -4.75981 1
      vertex -2.075 -4.5 1
    endloop
  endfacet
  facet normal -0 0 1
    outer loop
      vertex -2.225 -4.75981 1
      vertex 10 -5 1
      vertex -0.150001 -4.75981 1
    endloop
  endfacet
  facet normal 0 0 1
    outer loop
      vertex -10 -5 1
      vertex -2.225 -4.75981 1
      vertex -2.525 -4.75981 1
    endloop
  endfacet
  facet normal -0 0 1
    outer loop
      vertex -4.45 -4.5 1
      vertex -2.525 -4.75981 1
      vertex -2.675 -4.5 1
    endloop
  endfacet
  facet normal 0 0 1
    outer loop
      vertex -4.6 -4.75981 1
      vertex -2.525 -4.75981 1
      vertex -4.45 -4.5 1
    endloop
  endfacet
  facet normal 0 0 1
    outer loop
      vertex -10 -5 1
      vertex -2.525 -4.75981 1
      vertex -4.6 -4.75981 1
    endloop
  endfacet
  facet normal 0 0 1
    outer loop
      vertex -10 -5 1
      vertex -4.6 -4.75981 1
      vertex -4.9 -4.75981 1
    endloop
  endfacet
  facet normal -0 0 1
    outer loop
      vertex -6.825 -4.5 1
      vertex -4.9 -4.75981 1
      vertex -5.05 -4.5 1
    endloop
  endfacet
  facet normal 0 0 1
    outer loop
      vertex -6.975 -4.75981 1
      vertex -4.9 -4.75981 1
      vertex -6.825 -4.5 1
    endloop
  endfacet
  facet normal 0 0 1
    outer loop
      vertex -10 -5 1
      vertex -4.9 -4.75981 1
      vertex -6.975 -4.75981 1
    endloop
  endfacet
  facet normal 0 0 1
    outer loop
      vertex -10 -5 1
      vertex -6.975 -4.75981 1
      vertex -7.275 -4.75981 1
    endloop
  endfacet
  facet normal 0 0 1
    outer loop
      vertex -9.2 -4.5 1
      vertex -7.425 -4.5 1
      vertex -9 -4 1
    endloop
  endfacet
  facet normal 0 0 1
    outer loop
      vertex -9.2 0 1
      vertex -9 4 1
      vertex -9.2 2.25 1
    endloop
  endfacet
  facet normal 0 0 1
    outer loop
      vertex -9 4 1
      vertex -9.2 0 1
      vertex -9 -4 1
    endloop
  endfacet
  facet normal -0 0 1
    outer loop
      vertex -9.2 -2.25 1
      vertex -9 -4 1
      vertex -9.2 0 1
    endloop
  endfacet
  facet normal -0 0 1
    outer loop
      vertex -9.35 -2.50981 1
      vertex -9 -4 1
      vertex -9.2 -2.25 1
    endloop
  endfacet
  facet normal 0 0 1
    outer loop
      vertex -7.425 -4.5 1
      vertex -9.2 -4.5 1
      vertex -7.275 -4.75981 1
    endloop
  endfacet
  facet normal 0 0 1
    outer loop
      vertex -9.35 -4.75981 1
      vertex -7.275 -4.75981 1
      vertex -9.2 -4.5 1
    endloop
  endfacet
  facet normal 0 0 1
    outer loop
      vertex -10 -5 1
      vertex -7.275 -4.75981 1
      vertex -9.35 -4.75981 1
    endloop
  endfacet
  facet normal 0 0 1
    outer loop
      vertex -10 -5 1
      vertex -9.35 -4.75981 1
      vertex -9.65 -4.75981 1
    endloop
  endfacet
  facet normal 0 0 1
    outer loop
      vertex -2.225 -4.75981 1
      vertex -10 -5 1
      vertex 10 -5 1
    endloop
  endfacet
  facet normal 0 0 1
    outer loop
      vertex -9.8 -4.5 1
      vertex -10 -5 1
      vertex -9.65 -4.75981 1
    endloop
  endfacet
  facet normal 0 0 1
    outer loop
      vertex -9.8 -2.25 1
      vertex -10 -5 1
      vertex -9.8 -4.5 1
    endloop
  endfacet
  facet normal -0 0 1
    outer loop
      vertex 7.275 4.24019 1
      vertex 9 4 1
      vertex 7.425 4.5 1
    endloop
  endfacet
  facet normal -0 0 1
    outer loop
      vertex 6.975 4.24019 1
      vertex 9 4 1
      vertex 7.275 4.24019 1
    endloop
  endfacet
  facet normal -0 0 1
    outer loop
      vertex 5.05 4.5 1
      vertex 6.975 4.24019 1
      vertex 6.825 4.5 1
    endloop
  endfacet
  facet normal 0 0 1
    outer loop
      vertex 4.9 4.24019 1
      vertex 6.975 4.24019 1
      vertex 5.05 4.5 1
    endloop
  endfacet
  facet normal -0 0 1
    outer loop
      vertex 4.9 4.24019 1
      vertex 9 4 1
      vertex 6.975 4.24019 1
    endloop
  endfacet
  facet normal -0 0 1
    outer loop
      vertex 4.6 4.24019 1
      vertex 9 4 1
      vertex 4.9 4.24019 1
    endloop
  endfacet
  facet normal -0 0 1
    outer loop
      vertex 2.675 4.5 1
      vertex 4.6 4.24019 1
      vertex 4.45 4.5 1
    endloop
  endfacet
  facet normal 0 0 1
    outer loop
      vertex 2.525 4.24019 1
      vertex 4.6 4.24019 1
      vertex 2.675 4.5 1
    endloop
  endfacet
  facet normal -0 0 1
    outer loop
      vertex 2.525 4.24019 1
      vertex 9 4 1
      vertex 4.6 4.24019 1
    endloop
  endfacet
  facet normal -0 0 1
    outer loop
      vertex 2.225 4.24019 1
      vertex 9 4 1
      vertex 2.525 4.24019 1
    endloop
  endfacet
  facet normal -0 0 1
    outer loop
      vertex 0.299999 4.5 1
      vertex 2.225 4.24019 1
      vertex 2.075 4.5 1
    endloop
  endfacet
  facet normal 0 0 1
    outer loop
      vertex 0.15 4.24019 1
      vertex 2.225 4.24019 1
      vertex 0.299999 4.5 1
    endloop
  endfacet
  facet normal -0 0 1
    outer loop
      vertex 0.15 4.24019 1
      vertex 9 4 1
      vertex 2.225 4.24019 1
    endloop
  endfacet
  facet normal -0 0 1
    outer loop
      vertex -0.150001 4.24019 1
      vertex 9 4 1
      vertex 0.15 4.24019 1
    endloop
  endfacet
  facet normal -0 0 1
    outer loop
      vertex -2.075 4.5 1
      vertex -0.150001 4.24019 1
      vertex -0.3 4.5 1
    endloop
  endfacet
  facet normal 0 0 1
    outer loop
      vertex -2.225 4.24019 1
      vertex -0.150001 4.24019 1
      vertex -2.075 4.5 1
    endloop
  endfacet
  facet normal -0 0 1
    outer loop
      vertex -2.225 4.24019 1
      vertex 9 4 1
      vertex -0.150001 4.24019 1
    endloop
  endfacet
  facet normal 0 0 1
    outer loop
      vertex -9 4 1
      vertex -2.225 4.24019 1
      vertex -2.525 4.24019 1
    endloop
  endfacet
  facet normal -0 0 1
    outer loop
      vertex -4.45 4.5 1
      vertex -2.525 4.24019 1
      vertex -2.675 4.5 1
    endloop
  endfacet
  facet normal 0 0 1
    outer loop
      vertex -4.6 4.24019 1
      vertex -2.525 4.24019 1
      vertex -4.45 4.5 1
    endloop
  endfacet
  facet normal 0 0 1
    outer loop
      vertex -9 4 1
      vertex -2.525 4.24019 1
      vertex -4.6 4.24019 1
    endloop
  endfacet
  facet normal 0 0 1
    outer loop
      vertex -9 4 1
      vertex -4.6 4.24019 1
      vertex -4.9 4.24019 1
    endloop
  endfacet
  facet normal -0 0 1
    outer loop
      vertex -6.825 4.5 1
      vertex -4.9 4.24019 1
      vertex -5.05 4.5 1
    endloop
  endfacet
  facet normal 0 0 1
    outer loop
      vertex -6.975 4.24019 1
      vertex -4.9 4.24019 1
      vertex -6.825 4.5 1
    endloop
  endfacet
  facet normal 0 0 1
    outer loop
      vertex -9 4 1
      vertex -4.9 4.24019 1
      vertex -6.975 4.24019 1
    endloop
  endfacet
  facet normal 0 0 1
    outer loop
      vertex -9 4 1
      vertex -6.975 4.24019 1
      vertex -7.275 4.24019 1
    endloop
  endfacet
  facet normal 0 0 1
    outer loop
      vertex -2.225 4.24019 1
      vertex -9 4 1
      vertex 9 4 1
    endloop
  endfacet
  facet normal 0 0 1
    outer loop
      vertex -9 4 1
      vertex -7.275 4.24019 1
      vertex -7.425 4.5 1
    endloop
  endfacet
  facet normal 1 -0 0
    outer loop
      vertex 10 -5 1
      vertex 10 5 0
      vertex 10 5 1
    endloop
  endfacet
  facet normal 1 0 0
    outer loop
      vertex 10 5 0
      vertex 10 -5 1
      vertex 10 -5 0
    endloop
  endfacet
  facet normal 0 1 -0
    outer loop
      vertex 10 5 0
      vertex -10 5 1
      vertex 10 5 1
    endloop
  endfacet
  facet normal 0 1 0
    outer loop
      vertex -10 5 1
      vertex 10 5 0
      vertex -10 5 0
    endloop
  endfacet
  facet normal 0 0 -1
    outer loop
      vertex -10 -5 0
      vertex 10 5 0
      vertex 10 -5 0
    endloop
  endfacet
  facet normal -0 0 -1
    outer loop
      vertex 10 5 0
      vertex -10 -5 0
      vertex -10 5 0
    endloop
  endfacet
  facet normal 0 -1 0
    outer loop
      vertex -10 -5 0
      vertex 10 -5 1
      vertex -10 -5 1
    endloop
  endfacet
  facet normal 0 -1 -0
    outer loop
      vertex 10 -5 1
      vertex -10 -5 0
      vertex 10 -5 0
    endloop
  endfacet
  facet normal 1 -0 0
    outer loop
      vertex -9 -4 1
      vertex -9 4 0.5
      vertex -9 4 1
    endloop
  endfacet
  facet normal 1 0 0
    outer loop
      vertex -9 4 0.5
      vertex -9 -4 1
      vertex -9 -4 0.5
    endloop
  endfacet
  facet normal -1 0 0
    outer loop
      vertex 9 -4 0.5
      vertex 9 4 1
      vertex 9 4 0.5
    endloop
  endfacet
  facet normal -1 -0 0
    outer loop
      vertex 9 4 1
      vertex 9 -4 0.5
      vertex 9 -4 1
    endloop
  endfacet
  facet normal -0 0 1
    outer loop
      vertex -9 4 0.5
      vertex 9 -4 0.5
      vertex 9 4 0.5
    endloop
  endfacet
  facet normal 0 0 1
    outer loop
      vertex 9 -4 0.5
      vertex -9 4 0.5
      vertex -9 -4 0.5
    endloop
  endfacet
  facet normal 0 1 -0
    outer loop
      vertex 9 -4 0.5
      vertex -9 -4 1
      vertex 9 -4 1
    endloop
  endfacet
  facet normal 0 1 0
    outer loop
      vertex -9 -4 1
      vertex 9 -4 0.5
      vertex -9 -4 0.5
    endloop
  endfacet
  facet normal 0 -1 0
    outer loop
      vertex -9 4 0.5
      vertex 9 4 1
      vertex -9 4 1
    endloop
  endfacet
  facet normal 0 -1 -0
    outer loop
      vertex 9 4 1
      vertex -9 4 0.5
      vertex 9 4 0.5
    endloop
  endfacet
  facet normal 0 -1 0
    outer loop
      vertex -9.65 4.24019 1
      vertex -9.35 4.24019 1.2
      vertex -9.65 4.24019 1.2
    endloop
  endfacet
  facet normal 0 -1 -0
    outer loop
      vertex -9.35 4.24019 1.2
      vertex -9.65 4.24019 1
      vertex -9.35 4.24019 1
    endloop
  endfacet
  facet normal -0.866027 0.499997 0
    outer loop
      vertex -9.8 4.5 1
      vertex -9.65 4.75981 1.2
      vertex -9.65 4.75981 1
    endloop
  endfacet
  facet normal -0.866027 0.499997 0
    outer loop
      vertex -9.65 4.75981 1.2
      vertex -9.8 4.5 1
      vertex -9.8 4.5 1.2
    endloop
  endfacet
  facet normal 0 1 -0
    outer loop
      vertex -9.35 4.75981 1
      vertex -9.65 4.75981 1.2
      vertex -9.35 4.75981 1.2
    endloop
  endfacet
  facet normal 0 1 0
    outer loop
      vertex -9.65 4.75981 1.2
      vertex -9.35 4.75981 1
      vertex -9.65 4.75981 1
    endloop
  endfacet
  facet normal -0.866027 -0.499997 0
    outer loop
      vertex -9.65 4.24019 1
      vertex -9.8 4.5 1.2
      vertex -9.8 4.5 1
    endloop
  endfacet
  facet normal -0.866027 -0.499997 0
    outer loop
      vertex -9.8 4.5 1.2
      vertex -9.65 4.24019 1
      vertex -9.65 4.24019 1.2
    endloop
  endfacet
  facet normal 0 0 1
    outer loop
      vertex -9.35 4.75981 1.2
      vertex -9.35 4.24019 1.2
      vertex -9.2 4.5 1.2
    endloop
  endfacet
  facet normal -0 0 1
    outer loop
      vertex -9.65 4.75981 1.2
      vertex -9.35 4.24019 1.2
      vertex -9.35 4.75981 1.2
    endloop
  endfacet
  facet normal 0 0 1
    outer loop
      vertex -9.65 4.75981 1.2
      vertex -9.65 4.24019 1.2
      vertex -9.35 4.24019 1.2
    endloop
  endfacet
  facet normal 0 -0 1
    outer loop
      vertex -9.65 4.24019 1.2
      vertex -9.65 4.75981 1.2
      vertex -9.8 4.5 1.2
    endloop
  endfacet
  facet normal -0.866027 0.499997 0
    outer loop
      vertex -9.8 -4.5 1
      vertex -9.65 -4.24019 1.2
      vertex -9.65 -4.24019 1
    endloop
  endfacet
  facet normal -0.866027 0.499997 0
    outer loop
      vertex -9.65 -4.24019 1.2
      vertex -9.8 -4.5 1
      vertex -9.8 -4.5 1.2
    endloop
  endfacet
  facet normal 0 1 -0
    outer loop
      vertex -9.35 -4.24019 1
      vertex -9.65 -4.24019 1.2
      vertex -9.35 -4.24019 1.2
    endloop
  endfacet
  facet normal 0 1 0
    outer loop
      vertex -9.65 -4.24019 1.2
      vertex -9.35 -4.24019 1
      vertex -9.65 -4.24019 1
    endloop
  endfacet
  facet normal 0 0 1
    outer loop
      vertex -9.35 -4.24019 1.2
      vertex -9.35 -4.75981 1.2
      vertex -9.2 -4.5 1.2
    endloop
  endfacet
  facet normal 0 0 1
    outer loop
      vertex -9.35 -4.24019 1.2
      vertex -9.65 -4.24019 1.2
      vertex -9.35 -4.75981 1.2
    endloop
  endfacet
  facet normal 0 0 1
    outer loop
      vertex -9.65 -4.24019 1.2
      vertex -9.65 -4.75981 1.2
      vertex -9.35 -4.75981 1.2
    endloop
  endfacet
  facet normal 0 -0 1
    outer loop
      vertex -9.65 -4.75981 1.2
      vertex -9.65 -4.24019 1.2
      vertex -9.8 -4.5 1.2
    endloop
  endfacet
  facet normal 0 -1 0
    outer loop
      vertex -9.65 -4.75981 1
      vertex -9.35 -4.75981 1.2
      vertex -9.65 -4.75981 1.2
    endloop
  endfacet
  facet normal 0 -1 -0
    outer loop
      vertex -9.35 -4.75981 1.2
      vertex -9.65 -4.75981 1
      vertex -9.35 -4.75981 1
    endloop
  endfacet
  facet normal -0.866027 -0.499997 0
    outer loop
      vertex -9.65 -4.75981 1
      vertex -9.8 -4.5 1.2
      vertex -9.8 -4.5 1
    endloop
  endfacet
  facet normal -0.866027 -0.499997 0
    outer loop
      vertex -9.8 -4.5 1.2
      vertex -9.65 -4.75981 1
      vertex -9.65 -4.75981 1.2
    endloop
  endfacet
  facet normal 0.866027 0.499997 0
    outer loop
      vertex -6.825 4.5 1.2
      vertex -6.975 4.75981 1
      vertex -6.975 4.75981 1.2
    endloop
  endfacet
  facet normal 0.866027 0.499997 0
    outer loop
      vertex -6.975 4.75981 1
      vertex -6.825 4.5 1.2
      vertex -6.825 4.5 1
    endloop
  endfacet
  facet normal 0 1 -0
    outer loop
      vertex -6.975 4.75981 1
      vertex -7.275 4.75981 1.2
      vertex -6.975 4.75981 1.2
    endloop
  endfacet
  facet normal 0 1 0
    outer loop
      vertex -7.275 4.75981 1.2
      vertex -6.975 4.75981 1
      vertex -7.275 4.75981 1
    endloop
  endfacet
  facet normal 0 -1 0
    outer loop
      vertex -7.275 4.24019 1
      vertex -6.975 4.24019 1.2
      vertex -7.275 4.24019 1.2
    endloop
  endfacet
  facet normal 0 -1 -0
    outer loop
      vertex -6.975 4.24019 1.2
      vertex -7.275 4.24019 1
      vertex -6.975 4.24019 1
    endloop
  endfacet
  facet normal 0 0 1
    outer loop
      vertex -6.975 4.75981 1.2
      vertex -6.975 4.24019 1.2
      vertex -6.825 4.5 1.2
    endloop
  endfacet
  facet normal -0 0 1
    outer loop
      vertex -7.275 4.75981 1.2
      vertex -6.975 4.24019 1.2
      vertex -6.975 4.75981 1.2
    endloop
  endfacet
  facet normal 0 0 1
    outer loop
      vertex -7.275 4.75981 1.2
      vertex -7.275 4.24019 1.2
      vertex -6.975 4.24019 1.2
    endloop
  endfacet
  facet normal 0 -0 1
    outer loop
      vertex -7.275 4.24019 1.2
      vertex -7.275 4.75981 1.2
      vertex -7.425 4.5 1.2
    endloop
  endfacet
  facet normal -0.866027 0.499997 0
    outer loop
      vertex -7.425 4.5 1
      vertex -7.275 4.75981 1.2
      vertex -7.275 4.75981 1
    endloop
  endfacet
  facet normal -0.866027 0.499997 0
    outer loop
      vertex -7.275 4.75981 1.2
      vertex -7.425 4.5 1
      vertex -7.425 4.5 1.2
    endloop
  endfacet
  facet normal 0.866027 -0.499997 0
    outer loop
      vertex -6.975 4.24019 1.2
      vertex -6.825 4.5 1
      vertex -6.825 4.5 1.2
    endloop
  endfacet
  facet normal 0.866027 -0.499997 0
    outer loop
      vertex -6.825 4.5 1
      vertex -6.975 4.24019 1.2
      vertex -6.975 4.24019 1
    endloop
  endfacet
  facet normal -0.866027 -0.499997 0
    outer loop
      vertex -7.275 4.24019 1
      vertex -7.425 4.5 1.2
      vertex -7.425 4.5 1
    endloop
  endfacet
  facet normal -0.866027 -0.499997 0
    outer loop
      vertex -7.425 4.5 1.2
      vertex -7.275 4.24019 1
      vertex -7.275 4.24019 1.2
    endloop
  endfacet
  facet normal 0.866027 0.499997 0
    outer loop
      vertex -6.825 -4.5 1.2
      vertex -6.975 -4.24019 1
      vertex -6.975 -4.24019 1.2
    endloop
  endfacet
  facet normal 0.866027 0.499997 0
    outer loop
      vertex -6.975 -4.24019 1
      vertex -6.825 -4.5 1.2
      vertex -6.825 -4.5 1
    endloop
  endfacet
  facet normal -0.866027 0.499997 0
    outer loop
      vertex -7.425 -4.5 1
      vertex -7.275 -4.24019 1.2
      vertex -7.275 -4.24019 1
    endloop
  endfacet
  facet normal -0.866027 0.499997 0
    outer loop
      vertex -7.275 -4.24019 1.2
      vertex -7.425 -4.5 1
      vertex -7.425 -4.5 1.2
    endloop
  endfacet
  facet normal 0 1 -0
    outer loop
      vertex -6.975 -4.24019 1
      vertex -7.275 -4.24019 1.2
      vertex -6.975 -4.24019 1.2
    endloop
  endfacet
  facet normal 0 1 0
    outer loop
      vertex -7.275 -4.24019 1.2
      vertex -6.975 -4.24019 1
      vertex -7.275 -4.24019 1
    endloop
  endfacet
  facet normal 0 0 1
    outer loop
      vertex -6.975 -4.24019 1.2
      vertex -6.975 -4.75981 1.2
      vertex -6.825 -4.5 1.2
    endloop
  endfacet
  facet normal -0 0 1
    outer loop
      vertex -7.275 -4.24019 1.2
      vertex -6.975 -4.75981 1.2
      vertex -6.975 -4.24019 1.2
    endloop
  endfacet
  facet normal 0 0 1
    outer loop
      vertex -7.275 -4.24019 1.2
      vertex -7.275 -4.75981 1.2
      vertex -6.975 -4.75981 1.2
    endloop
  endfacet
  facet normal 0 -0 1
    outer loop
      vertex -7.275 -4.75981 1.2
      vertex -7.275 -4.24019 1.2
      vertex -7.425 -4.5 1.2
    endloop
  endfacet
  facet normal -0.866027 -0.499997 0
    outer loop
      vertex -7.275 -4.75981 1
      vertex -7.425 -4.5 1.2
      vertex -7.425 -4.5 1
    endloop
  endfacet
  facet normal -0.866027 -0.499997 0
    outer loop
      vertex -7.425 -4.5 1.2
      vertex -7.275 -4.75981 1
      vertex -7.275 -4.75981 1.2
    endloop
  endfacet
  facet normal 0 -1 0
    outer loop
      vertex -7.275 -4.75981 1
      vertex -6.975 -4.75981 1.2
      vertex -7.275 -4.75981 1.2
    endloop
  endfacet
  facet normal 0 -1 -0
    outer loop
      vertex -6.975 -4.75981 1.2
      vertex -7.275 -4.75981 1
      vertex -6.975 -4.75981 1
    endloop
  endfacet
  facet normal 0.866027 -0.499997 0
    outer loop
      vertex -6.975 -4.75981 1.2
      vertex -6.825 -4.5 1
      vertex -6.825 -4.5 1.2
    endloop
  endfacet
  facet normal 0.866027 -0.499997 0
    outer loop
      vertex -6.825 -4.5 1
      vertex -6.975 -4.75981 1.2
      vertex -6.975 -4.75981 1
    endloop
  endfacet
  facet normal 0.866027 0.499997 0
    outer loop
      vertex -4.45 4.5 1.2
      vertex -4.6 4.75981 1
      vertex -4.6 4.75981 1.2
    endloop
  endfacet
  facet normal 0.866027 0.499997 0
    outer loop
      vertex -4.6 4.75981 1
      vertex -4.45 4.5 1.2
      vertex -4.45 4.5 1
    endloop
  endfacet
  facet normal -0.866027 -0.499997 0
    outer loop
      vertex -4.9 4.24019 1
      vertex -5.05 4.5 1.2
      vertex -5.05 4.5 1
    endloop
  endfacet
  facet normal -0.866027 -0.499997 0
    outer loop
      vertex -5.05 4.5 1.2
      vertex -4.9 4.24019 1
      vertex -4.9 4.24019 1.2
    endloop
  endfacet
  facet normal 0 1 -0
    outer loop
      vertex -4.6 4.75981 1
      vertex -4.9 4.75981 1.2
      vertex -4.6 4.75981 1.2
    endloop
  endfacet
  facet normal 0 1 0
    outer loop
      vertex -4.9 4.75981 1.2
      vertex -4.6 4.75981 1
      vertex -4.9 4.75981 1
    endloop
  endfacet
  facet normal 0 -1 0
    outer loop
      vertex -4.9 4.24019 1
      vertex -4.6 4.24019 1.2
      vertex -4.9 4.24019 1.2
    endloop
  endfacet
  facet normal 0 -1 -0
    outer loop
      vertex -4.6 4.24019 1.2
      vertex -4.9 4.24019 1
      vertex -4.6 4.24019 1
    endloop
  endfacet
  facet normal 0 0 1
    outer loop
      vertex -4.6 4.75981 1.2
      vertex -4.6 4.24019 1.2
      vertex -4.45 4.5 1.2
    endloop
  endfacet
  facet normal -0 0 1
    outer loop
      vertex -4.9 4.75981 1.2
      vertex -4.6 4.24019 1.2
      vertex -4.6 4.75981 1.2
    endloop
  endfacet
  facet normal 0 0 1
    outer loop
      vertex -4.9 4.75981 1.2
      vertex -4.9 4.24019 1.2
      vertex -4.6 4.24019 1.2
    endloop
  endfacet
  facet normal 0 -0 1
    outer loop
      vertex -4.9 4.24019 1.2
      vertex -4.9 4.75981 1.2
      vertex -5.05 4.5 1.2
    endloop
  endfacet
  facet normal -0.866027 0.499997 0
    outer loop
      vertex -5.05 4.5 1
      vertex -4.9 4.75981 1.2
      vertex -4.9 4.75981 1
    endloop
  endfacet
  facet normal -0.866027 0.499997 0
    outer loop
      vertex -4.9 4.75981 1.2
      vertex -5.05 4.5 1
      vertex -5.05 4.5 1.2
    endloop
  endfacet
  facet normal 0.866027 -0.499997 0
    outer loop
      vertex -4.6 4.24019 1.2
      vertex -4.45 4.5 1
      vertex -4.45 4.5 1.2
    endloop
  endfacet
  facet normal 0.866027 -0.499997 0
    outer loop
      vertex -4.45 4.5 1
      vertex -4.6 4.24019 1.2
      vertex -4.6 4.24019 1
    endloop
  endfacet
  facet normal 0.866027 0.499997 0
    outer loop
      vertex -4.45 -4.5 1.2
      vertex -4.6 -4.24019 1
      vertex -4.6 -4.24019 1.2
    endloop
  endfacet
  facet normal 0.866027 0.499997 0
    outer loop
      vertex -4.6 -4.24019 1
      vertex -4.45 -4.5 1.2
      vertex -4.45 -4.5 1
    endloop
  endfacet
  facet normal -0.866027 0.499997 0
    outer loop
      vertex -5.05 -4.5 1
      vertex -4.9 -4.24019 1.2
      vertex -4.9 -4.24019 1
    endloop
  endfacet
  facet normal -0.866027 0.499997 0
    outer loop
      vertex -4.9 -4.24019 1.2
      vertex -5.05 -4.5 1
      vertex -5.05 -4.5 1.2
    endloop
  endfacet
  facet normal 0 1 -0
    outer loop
      vertex -4.6 -4.24019 1
      vertex -4.9 -4.24019 1.2
      vertex -4.6 -4.24019 1.2
    endloop
  endfacet
  facet normal 0 1 0
    outer loop
      vertex -4.9 -4.24019 1.2
      vertex -4.6 -4.24019 1
      vertex -4.9 -4.24019 1
    endloop
  endfacet
  facet normal 0 0 1
    outer loop
      vertex -4.6 -4.24019 1.2
      vertex -4.6 -4.75981 1.2
      vertex -4.45 -4.5 1.2
    endloop
  endfacet
  facet normal -0 0 1
    outer loop
      vertex -4.9 -4.24019 1.2
      vertex -4.6 -4.75981 1.2
      vertex -4.6 -4.24019 1.2
    endloop
  endfacet
  facet normal 0 0 1
    outer loop
      vertex -4.9 -4.24019 1.2
      vertex -4.9 -4.75981 1.2
      vertex -4.6 -4.75981 1.2
    endloop
  endfacet
  facet normal 0 -0 1
    outer loop
      vertex -4.9 -4.75981 1.2
      vertex -4.9 -4.24019 1.2
      vertex -5.05 -4.5 1.2
    endloop
  endfacet
  facet normal 0.866027 -0.499997 0
    outer loop
      vertex -4.6 -4.75981 1.2
      vertex -4.45 -4.5 1
      vertex -4.45 -4.5 1.2
    endloop
  endfacet
  facet normal 0.866027 -0.499997 0
    outer loop
      vertex -4.45 -4.5 1
      vertex -4.6 -4.75981 1.2
      vertex -4.6 -4.75981 1
    endloop
  endfacet
  facet normal 0 -1 0
    outer loop
      vertex -4.9 -4.75981 1
      vertex -4.6 -4.75981 1.2
      vertex -4.9 -4.75981 1.2
    endloop
  endfacet
  facet normal 0 -1 -0
    outer loop
      vertex -4.6 -4.75981 1.2
      vertex -4.9 -4.75981 1
      vertex -4.6 -4.75981 1
    endloop
  endfacet
  facet normal -0.866027 -0.499997 0
    outer loop
      vertex -4.9 -4.75981 1
      vertex -5.05 -4.5 1.2
      vertex -5.05 -4.5 1
    endloop
  endfacet
  facet normal -0.866027 -0.499997 0
    outer loop
      vertex -5.05 -4.5 1.2
      vertex -4.9 -4.75981 1
      vertex -4.9 -4.75981 1.2
    endloop
  endfacet
  facet normal 0.866027 0.499997 0
    outer loop
      vertex -2.075 4.5 1.2
      vertex -2.225 4.75981 1
      vertex -2.225 4.75981 1.2
    endloop
  endfacet
  facet normal 0.866027 0.499997 0
    outer loop
      vertex -2.225 4.75981 1
      vertex -2.075 4.5 1.2
      vertex -2.075 4.5 1
    endloop
  endfacet
  facet normal -0.866027 -0.499997 0
    outer loop
      vertex -2.525 4.24019 1
      vertex -2.675 4.5 1.2
      vertex -2.675 4.5 1
    endloop
  endfacet
  facet normal -0.866027 -0.499997 0
    outer loop
      vertex -2.675 4.5 1.2
      vertex -2.525 4.24019 1
      vertex -2.525 4.24019 1.2
    endloop
  endfacet
  facet normal 0 1 -0
    outer loop
      vertex -2.225 4.75981 1
      vertex -2.525 4.75981 1.2
      vertex -2.225 4.75981 1.2
    endloop
  endfacet
  facet normal 0 1 0
    outer loop
      vertex -2.525 4.75981 1.2
      vertex -2.225 4.75981 1
      vertex -2.525 4.75981 1
    endloop
  endfacet
  facet normal 0 -1 0
    outer loop
      vertex -2.525 4.24019 1
      vertex -2.225 4.24019 1.2
      vertex -2.525 4.24019 1.2
    endloop
  endfacet
  facet normal 0 -1 -0
    outer loop
      vertex -2.225 4.24019 1.2
      vertex -2.525 4.24019 1
      vertex -2.225 4.24019 1
    endloop
  endfacet
  facet normal 0 0 1
    outer loop
      vertex -2.225 4.75981 1.2
      vertex -2.225 4.24019 1.2
      vertex -2.075 4.5 1.2
    endloop
  endfacet
  facet normal -0 0 1
    outer loop
      vertex -2.525 4.75981 1.2
      vertex -2.225 4.24019 1.2
      vertex -2.225 4.75981 1.2
    endloop
  endfacet
  facet normal 0 0 1
    outer loop
      vertex -2.525 4.75981 1.2
      vertex -2.525 4.24019 1.2
      vertex -2.225 4.24019 1.2
    endloop
  endfacet
  facet normal 0 -0 1
    outer loop
      vertex -2.525 4.24019 1.2
      vertex -2.525 4.75981 1.2
      vertex -2.675 4.5 1.2
    endloop
  endfacet
  facet normal -0.866027 0.499997 0
    outer loop
      vertex -2.675 4.5 1
      vertex -2.525 4.75981 1.2
      vertex -2.525 4.75981 1
    endloop
  endfacet
  facet normal -0.866027 0.499997 0
    outer loop
      vertex -2.525 4.75981 1.2
      vertex -2.675 4.5 1
      vertex -2.675 4.5 1.2
    endloop
  endfacet
  facet normal 0.866027 -0.499997 0
    outer loop
      vertex -2.225 4.24019 1.2
      vertex -2.075 4.5 1
      vertex -2.075 4.5 1.2
    endloop
  endfacet
  facet normal 0.866027 -0.499997 0
    outer loop
      vertex -2.075 4.5 1
      vertex -2.225 4.24019 1.2
      vertex -2.225 4.24019 1
    endloop
  endfacet
  facet normal 0.866027 0.499997 0
    outer loop
      vertex -2.075 -4.5 1.2
      vertex -2.225 -4.24019 1
      vertex -2.225 -4.24019 1.2
    endloop
  endfacet
  facet normal 0.866027 0.499997 0
    outer loop
      vertex -2.225 -4.24019 1
      vertex -2.075 -4.5 1.2
      vertex -2.075 -4.5 1
    endloop
  endfacet
  facet normal -0.866027 0.499997 0
    outer loop
      vertex -2.675 -4.5 1
      vertex -2.525 -4.24019 1.2
      vertex -2.525 -4.24019 1
    endloop
  endfacet
  facet normal -0.866027 0.499997 0
    outer loop
      vertex -2.525 -4.24019 1.2
      vertex -2.675 -4.5 1
      vertex -2.675 -4.5 1.2
    endloop
  endfacet
  facet normal 0 1 -0
    outer loop
      vertex -2.225 -4.24019 1
      vertex -2.525 -4.24019 1.2
      vertex -2.225 -4.24019 1.2
    endloop
  endfacet
  facet normal 0 1 0
    outer loop
      vertex -2.525 -4.24019 1.2
      vertex -2.225 -4.24019 1
      vertex -2.525 -4.24019 1
    endloop
  endfacet
  facet normal 0 0 1
    outer loop
      vertex -2.225 -4.24019 1.2
      vertex -2.225 -4.75981 1.2
      vertex -2.075 -4.5 1.2
    endloop
  endfacet
  facet normal -0 0 1
    outer loop
      vertex -2.525 -4.24019 1.2
      vertex -2.225 -4.75981 1.2
      vertex -2.225 -4.24019 1.2
    endloop
  endfacet
  facet normal 0 0 1
    outer loop
      vertex -2.525 -4.24019 1.2
      vertex -2.525 -4.75981 1.2
      vertex -2.225 -4.75981 1.2
    endloop
  endfacet
  facet normal 0 -0 1
    outer loop
      vertex -2.525 -4.75981 1.2
      vertex -2.525 -4.24019 1.2
      vertex -2.675 -4.5 1.2
    endloop
  endfacet
  facet normal 0 -1 0
    outer loop
      vertex -2.525 -4.75981 1
      vertex -2.225 -4.75981 1.2
      vertex -2.525 -4.75981 1.2
    endloop
  endfacet
  facet normal 0 -1 -0
    outer loop
      vertex -2.225 -4.75981 1.2
      vertex -2.525 -4.75981 1
      vertex -2.225 -4.75981 1
    endloop
  endfacet
  facet normal -0.866027 -0.499997 0
    outer loop
      vertex -2.525 -4.75981 1
      vertex -2.675 -4.5 1.2
      vertex -2.675 -4.5 1
    endloop
  endfacet
  facet normal -0.866027 -0.499997 0
    outer loop
      vertex -2.675 -4.5 1.2
      vertex -2.525 -4.75981 1
      vertex -2.525 -4.75981 1.2
    endloop
  endfacet
  facet normal 0.866027 -0.499997 0
    outer loop
      vertex -2.225 -4.75981 1.2
      vertex -2.075 -4.5 1
      vertex -2.075 -4.5 1.2
    endloop
  endfacet
  facet normal 0.866027 -0.499997 0
    outer loop
      vertex -2.075 -4.5 1
      vertex -2.225 -4.75981 1.2
      vertex -2.225 -4.75981 1
    endloop
  endfacet
  facet normal 0.866029 0.499994 0
    outer loop
      vertex 0.299999 4.5 1.2
      vertex 0.15 4.75981 1
      vertex 0.15 4.75981 1.2
    endloop
  endfacet
  facet normal 0.866029 0.499994 0
    outer loop
      vertex 0.15 4.75981 1
      vertex 0.299999 4.5 1.2
      vertex 0.299999 4.5 1
    endloop
  endfacet
  facet normal 0 1 -0
    outer loop
      vertex 0.15 4.75981 1
      vertex -0.150001 4.75981 1.2
      vertex 0.15 4.75981 1.2
    endloop
  endfacet
  facet normal 0 1 0
    outer loop
      vertex -0.150001 4.75981 1.2
      vertex 0.15 4.75981 1
      vertex -0.150001 4.75981 1
    endloop
  endfacet
  facet normal 0 -1 0
    outer loop
      vertex -0.150001 4.24019 1
      vertex 0.15 4.24019 1.2
      vertex -0.150001 4.24019 1.2
    endloop
  endfacet
  facet normal 0 -1 -0
    outer loop
      vertex 0.15 4.24019 1.2
      vertex -0.150001 4.24019 1
      vertex 0.15 4.24019 1
    endloop
  endfacet
  facet normal 0 0 1
    outer loop
      vertex 0.15 4.75981 1.2
      vertex 0.15 4.24019 1.2
      vertex 0.299999 4.5 1.2
    endloop
  endfacet
  facet normal -0 0 1
    outer loop
      vertex -0.150001 4.75981 1.2
      vertex 0.15 4.24019 1.2
      vertex 0.15 4.75981 1.2
    endloop
  endfacet
  facet normal 0 0 1
    outer loop
      vertex -0.150001 4.75981 1.2
      vertex -0.150001 4.24019 1.2
      vertex 0.15 4.24019 1.2
    endloop
  endfacet
  facet normal 0 -0 1
    outer loop
      vertex -0.150001 4.24019 1.2
      vertex -0.150001 4.75981 1.2
      vertex -0.3 4.5 1.2
    endloop
  endfacet
  facet normal -0.866029 0.499994 0
    outer loop
      vertex -0.3 4.5 1
      vertex -0.150001 4.75981 1.2
      vertex -0.150001 4.75981 1
    endloop
  endfacet
  facet normal -0.866029 0.499994 0
    outer loop
      vertex -0.150001 4.75981 1.2
      vertex -0.3 4.5 1
      vertex -0.3 4.5 1.2
    endloop
  endfacet
  facet normal 0.866029 -0.499994 0
    outer loop
      vertex 0.15 4.24019 1.2
      vertex 0.299999 4.5 1
      vertex 0.299999 4.5 1.2
    endloop
  endfacet
  facet normal 0.866029 -0.499994 0
    outer loop
      vertex 0.299999 4.5 1
      vertex 0.15 4.24019 1.2
      vertex 0.15 4.24019 1
    endloop
  endfacet
  facet normal -0.866029 -0.499994 0
    outer loop
      vertex -0.150001 4.24019 1
      vertex -0.3 4.5 1.2
      vertex -0.3 4.5 1
    endloop
  endfacet
  facet normal -0.866029 -0.499994 0
    outer loop
      vertex -0.3 4.5 1.2
      vertex -0.150001 4.24019 1
      vertex -0.150001 4.24019 1.2
    endloop
  endfacet
  facet normal 0.866029 0.499994 0
    outer loop
      vertex 0.299999 -4.5 1.2
      vertex 0.15 -4.24019 1
      vertex 0.15 -4.24019 1.2
    endloop
  endfacet
  facet normal 0.866029 0.499994 0
    outer loop
      vertex 0.15 -4.24019 1
      vertex 0.299999 -4.5 1.2
      vertex 0.299999 -4.5 1
    endloop
  endfacet
  facet normal -0.866029 0.499994 0
    outer loop
      vertex -0.3 -4.5 1
      vertex -0.150001 -4.24019 1.2
      vertex -0.150001 -4.24019 1
    endloop
  endfacet
  facet normal -0.866029 0.499994 0
    outer loop
      vertex -0.150001 -4.24019 1.2
      vertex -0.3 -4.5 1
      vertex -0.3 -4.5 1.2
    endloop
  endfacet
  facet normal 0 1 -0
    outer loop
      vertex 0.15 -4.24019 1
      vertex -0.150001 -4.24019 1.2
      vertex 0.15 -4.24019 1.2
    endloop
  endfacet
  facet normal 0 1 0
    outer loop
      vertex -0.150001 -4.24019 1.2
      vertex 0.15 -4.24019 1
      vertex -0.150001 -4.24019 1
    endloop
  endfacet
  facet normal 0 0 1
    outer loop
      vertex 0.15 -4.24019 1.2
      vertex 0.15 -4.75981 1.2
      vertex 0.299999 -4.5 1.2
    endloop
  endfacet
  facet normal -0 0 1
    outer loop
      vertex -0.150001 -4.24019 1.2
      vertex 0.15 -4.75981 1.2
      vertex 0.15 -4.24019 1.2
    endloop
  endfacet
  facet normal 0 0 1
    outer loop
      vertex -0.150001 -4.24019 1.2
      vertex -0.150001 -4.75981 1.2
      vertex 0.15 -4.75981 1.2
    endloop
  endfacet
  facet normal 0 -0 1
    outer loop
      vertex -0.150001 -4.75981 1.2
      vertex -0.150001 -4.24019 1.2
      vertex -0.3 -4.5 1.2
    endloop
  endfacet
  facet normal 0.866029 -0.499994 0
    outer loop
      vertex 0.15 -4.75981 1.2
      vertex 0.299999 -4.5 1
      vertex 0.299999 -4.5 1.2
    endloop
  endfacet
  facet normal 0.866029 -0.499994 0
    outer loop
      vertex 0.299999 -4.5 1
      vertex 0.15 -4.75981 1.2
      vertex 0.15 -4.75981 1
    endloop
  endfacet
  facet normal 0 -1 0
    outer loop
      vertex -0.150001 -4.75981 1
      vertex 0.15 -4.75981 1.2
      vertex -0.150001 -4.75981 1.2
    endloop
  endfacet
  facet normal 0 -1 -0
    outer loop
      vertex 0.15 -4.75981 1.2
      vertex -0.150001 -4.75981 1
      vertex 0.15 -4.75981 1
    endloop
  endfacet
  facet normal -0.866029 -0.499994 0
    outer loop
      vertex -0.150001 -4.75981 1
      vertex -0.3 -4.5 1.2
      vertex -0.3 -4.5 1
    endloop
  endfacet
  facet normal -0.866029 -0.499994 0
    outer loop
      vertex -0.3 -4.5 1.2
      vertex -0.150001 -4.75981 1
      vertex -0.150001 -4.75981 1.2
    endloop
  endfacet
  facet normal 0.866027 0.499997 0
    outer loop
      vertex 2.675 4.5 1.2
      vertex 2.525 4.75981 1
      vertex 2.525 4.75981 1.2
    endloop
  endfacet
  facet normal 0.866027 0.499997 0
    outer loop
      vertex 2.525 4.75981 1
      vertex 2.675 4.5 1.2
      vertex 2.675 4.5 1
    endloop
  endfacet
  facet normal 0 1 -0
    outer loop
      vertex 2.525 4.75981 1
      vertex 2.225 4.75981 1.2
      vertex 2.525 4.75981 1.2
    endloop
  endfacet
  facet normal 0 1 0
    outer loop
      vertex 2.225 4.75981 1.2
      vertex 2.525 4.75981 1
      vertex 2.225 4.75981 1
    endloop
  endfacet
  facet normal 0 -1 0
    outer loop
      vertex 2.225 4.24019 1
      vertex 2.525 4.24019 1.2
      vertex 2.225 4.24019 1.2
    endloop
  endfacet
  facet normal 0 -1 -0
    outer loop
      vertex 2.525 4.24019 1.2
      vertex 2.225 4.24019 1
      vertex 2.525 4.24019 1
    endloop
  endfacet
  facet normal 0 0 1
    outer loop
      vertex 2.525 4.75981 1.2
      vertex 2.525 4.24019 1.2
      vertex 2.675 4.5 1.2
    endloop
  endfacet
  facet normal -0 0 1
    outer loop
      vertex 2.225 4.75981 1.2
      vertex 2.525 4.24019 1.2
      vertex 2.525 4.75981 1.2
    endloop
  endfacet
  facet normal 0 0 1
    outer loop
      vertex 2.225 4.75981 1.2
      vertex 2.225 4.24019 1.2
      vertex 2.525 4.24019 1.2
    endloop
  endfacet
  facet normal 0 -0 1
    outer loop
      vertex 2.225 4.24019 1.2
      vertex 2.225 4.75981 1.2
      vertex 2.075 4.5 1.2
    endloop
  endfacet
  facet normal -0.866027 0.499997 0
    outer loop
      vertex 2.075 4.5 1
      vertex 2.225 4.75981 1.2
      vertex 2.225 4.75981 1
    endloop
  endfacet
  facet normal -0.866027 0.499997 0
    outer loop
      vertex 2.225 4.75981 1.2
      vertex 2.075 4.5 1
      vertex 2.075 4.5 1.2
    endloop
  endfacet
  facet normal 0.866027 -0.499997 0
    outer loop
      vertex 2.525 4.24019 1.2
      vertex 2.675 4.5 1
      vertex 2.675 4.5 1.2
    endloop
  endfacet
  facet normal 0.866027 -0.499997 0
    outer loop
      vertex 2.675 4.5 1
      vertex 2.525 4.24019 1.2
      vertex 2.525 4.24019 1
    endloop
  endfacet
  facet normal -0.866027 -0.499997 0
    outer loop
      vertex 2.225 4.24019 1
      vertex 2.075 4.5 1.2
      vertex 2.075 4.5 1
    endloop
  endfacet
  facet normal -0.866027 -0.499997 0
    outer loop
      vertex 2.075 4.5 1.2
      vertex 2.225 4.24019 1
      vertex 2.225 4.24019 1.2
    endloop
  endfacet
  facet normal 0.866027 0.499997 0
    outer loop
      vertex 2.675 -4.5 1.2
      vertex 2.525 -4.24019 1
      vertex 2.525 -4.24019 1.2
    endloop
  endfacet
  facet normal 0.866027 0.499997 0
    outer loop
      vertex 2.525 -4.24019 1
      vertex 2.675 -4.5 1.2
      vertex 2.675 -4.5 1
    endloop
  endfacet
  facet normal -0.866027 0.499997 0
    outer loop
      vertex 2.075 -4.5 1
      vertex 2.225 -4.24019 1.2
      vertex 2.225 -4.24019 1
    endloop
  endfacet
  facet normal -0.866027 0.499997 0
    outer loop
      vertex 2.225 -4.24019 1.2
      vertex 2.075 -4.5 1
      vertex 2.075 -4.5 1.2
    endloop
  endfacet
  facet normal 0 1 -0
    outer loop
      vertex 2.525 -4.24019 1
      vertex 2.225 -4.24019 1.2
      vertex 2.525 -4.24019 1.2
    endloop
  endfacet
  facet normal 0 1 0
    outer loop
      vertex 2.225 -4.24019 1.2
      vertex 2.525 -4.24019 1
      vertex 2.225 -4.24019 1
    endloop
  endfacet
  facet normal 0 0 1
    outer loop
      vertex 2.525 -4.24019 1.2
      vertex 2.525 -4.75981 1.2
      vertex 2.675 -4.5 1.2
    endloop
  endfacet
  facet normal -0 0 1
    outer loop
      vertex 2.225 -4.24019 1.2
      vertex 2.525 -4.75981 1.2
      vertex 2.525 -4.24019 1.2
    endloop
  endfacet
  facet normal 0 0 1
    outer loop
      vertex 2.225 -4.24019 1.2
      vertex 2.225 -4.75981 1.2
      vertex 2.525 -4.75981 1.2
    endloop
  endfacet
  facet normal 0 -0 1
    outer loop
      vertex 2.225 -4.75981 1.2
      vertex 2.225 -4.24019 1.2
      vertex 2.075 -4.5 1.2
    endloop
  endfacet
  facet normal -0.866027 -0.499997 0
    outer loop
      vertex 2.225 -4.75981 1
      vertex 2.075 -4.5 1.2
      vertex 2.075 -4.5 1
    endloop
  endfacet
  facet normal -0.866027 -0.499997 0
    outer loop
      vertex 2.075 -4.5 1.2
      vertex 2.225 -4.75981 1
      vertex 2.225 -4.75981 1.2
    endloop
  endfacet
  facet normal 0.866027 -0.499997 0
    outer loop
      vertex 2.525 -4.75981 1.2
      vertex 2.675 -4.5 1
      vertex 2.675 -4.5 1.2
    endloop
  endfacet
  facet normal 0.866027 -0.499997 0
    outer loop
      vertex 2.675 -4.5 1
      vertex 2.525 -4.75981 1.2
      vertex 2.525 -4.75981 1
    endloop
  endfacet
  facet normal 0 -1 0
    outer loop
      vertex 2.225 -4.75981 1
      vertex 2.525 -4.75981 1.2
      vertex 2.225 -4.75981 1.2
    endloop
  endfacet
  facet normal 0 -1 -0
    outer loop
      vertex 2.525 -4.75981 1.2
      vertex 2.225 -4.75981 1
      vertex 2.525 -4.75981 1
    endloop
  endfacet
  facet normal 0.866027 0.499997 0
    outer loop
      vertex 5.05 4.5 1.2
      vertex 4.9 4.75981 1
      vertex 4.9 4.75981 1.2
    endloop
  endfacet
  facet normal 0.866027 0.499997 0
    outer loop
      vertex 4.9 4.75981 1
      vertex 5.05 4.5 1.2
      vertex 5.05 4.5 1
    endloop
  endfacet
  facet normal 0 1 -0
    outer loop
      vertex 4.9 4.75981 1
      vertex 4.6 4.75981 1.2
      vertex 4.9 4.75981 1.2
    endloop
  endfacet
  facet normal 0 1 0
    outer loop
      vertex 4.6 4.75981 1.2
      vertex 4.9 4.75981 1
      vertex 4.6 4.75981 1
    endloop
  endfacet
  facet normal 0 -1 0
    outer loop
      vertex 4.6 4.24019 1
      vertex 4.9 4.24019 1.2
      vertex 4.6 4.24019 1.2
    endloop
  endfacet
  facet normal 0 -1 -0
    outer loop
      vertex 4.9 4.24019 1.2
      vertex 4.6 4.24019 1
      vertex 4.9 4.24019 1
    endloop
  endfacet
  facet normal 0 0 1
    outer loop
      vertex 4.9 4.75981 1.2
      vertex 4.9 4.24019 1.2
      vertex 5.05 4.5 1.2
    endloop
  endfacet
  facet normal -0 0 1
    outer loop
      vertex 4.6 4.75981 1.2
      vertex 4.9 4.24019 1.2
      vertex 4.9 4.75981 1.2
    endloop
  endfacet
  facet normal 0 0 1
    outer loop
      vertex 4.6 4.75981 1.2
      vertex 4.6 4.24019 1.2
      vertex 4.9 4.24019 1.2
    endloop
  endfacet
  facet normal 0 -0 1
    outer loop
      vertex 4.6 4.24019 1.2
      vertex 4.6 4.75981 1.2
      vertex 4.45 4.5 1.2
    endloop
  endfacet
  facet normal -0.866027 0.499997 0
    outer loop
      vertex 4.45 4.5 1
      vertex 4.6 4.75981 1.2
      vertex 4.6 4.75981 1
    endloop
  endfacet
  facet normal -0.866027 0.499997 0
    outer loop
      vertex 4.6 4.75981 1.2
      vertex 4.45 4.5 1
      vertex 4.45 4.5 1.2
    endloop
  endfacet
  facet normal 0.866027 -0.499997 0
    outer loop
      vertex 4.9 4.24019 1.2
      vertex 5.05 4.5 1
      vertex 5.05 4.5 1.2
    endloop
  endfacet
  facet normal 0.866027 -0.499997 0
    outer loop
      vertex 5.05 4.5 1
      vertex 4.9 4.24019 1.2
      vertex 4.9 4.24019 1
    endloop
  endfacet
  facet normal -0.866027 -0.499997 0
    outer loop
      vertex 4.6 4.24019 1
      vertex 4.45 4.5 1.2
      vertex 4.45 4.5 1
    endloop
  endfacet
  facet normal -0.866027 -0.499997 0
    outer loop
      vertex 4.45 4.5 1.2
      vertex 4.6 4.24019 1
      vertex 4.6 4.24019 1.2
    endloop
  endfacet
  facet normal 0.866027 0.499997 0
    outer loop
      vertex 5.05 -4.5 1.2
      vertex 4.9 -4.24019 1
      vertex 4.9 -4.24019 1.2
    endloop
  endfacet
  facet normal 0.866027 0.499997 0
    outer loop
      vertex 4.9 -4.24019 1
      vertex 5.05 -4.5 1.2
      vertex 5.05 -4.5 1
    endloop
  endfacet
  facet normal -0.866027 0.499997 0
    outer loop
      vertex 4.45 -4.5 1
      vertex 4.6 -4.24019 1.2
      vertex 4.6 -4.24019 1
    endloop
  endfacet
  facet normal -0.866027 0.499997 0
    outer loop
      vertex 4.6 -4.24019 1.2
      vertex 4.45 -4.5 1
      vertex 4.45 -4.5 1.2
    endloop
  endfacet
  facet normal 0 1 -0
    outer loop
      vertex 4.9 -4.24019 1
      vertex 4.6 -4.24019 1.2
      vertex 4.9 -4.24019 1.2
    endloop
  endfacet
  facet normal 0 1 0
    outer loop
      vertex 4.6 -4.24019 1.2
      vertex 4.9 -4.24019 1
      vertex 4.6 -4.24019 1
    endloop
  endfacet
  facet normal 0 0 1
    outer loop
      vertex 4.9 -4.24019 1.2
      vertex 4.9 -4.75981 1.2
      vertex 5.05 -4.5 1.2
    endloop
  endfacet
  facet normal -0 0 1
    outer loop
      vertex 4.6 -4.24019 1.2
      vertex 4.9 -4.75981 1.2
      vertex 4.9 -4.24019 1.2
    endloop
  endfacet
  facet normal 0 0 1
    outer loop
      vertex 4.6 -4.24019 1.2
      vertex 4.6 -4.75981 1.2
      vertex 4.9 -4.75981 1.2
    endloop
  endfacet
  facet normal 0 -0 1
    outer loop
      vertex 4.6 -4.75981 1.2
      vertex 4.6 -4.24019 1.2
      vertex 4.45 -4.5 1.2
    endloop
  endfacet
  facet normal 0 -1 0
    outer loop
      vertex 4.6 -4.75981 1
      vertex 4.9 -4.75981 1.2
      vertex 4.6 -4.75981 1.2
    endloop
  endfacet
  facet normal 0 -1 -0
    outer loop
      vertex 4.9 -4.75981 1.2
      vertex 4.6 -4.75981 1
      vertex 4.9 -4.75981 1
    endloop
  endfacet
  facet normal -0.866027 -0.499997 0
    outer loop
      vertex 4.6 -4.75981 1
      vertex 4.45 -4.5 1.2
      vertex 4.45 -4.5 1
    endloop
  endfacet
  facet normal -0.866027 -0.499997 0
    outer loop
      vertex 4.45 -4.5 1.2
      vertex 4.6 -4.75981 1
      vertex 4.6 -4.75981 1.2
    endloop
  endfacet
  facet normal 0.866027 -0.499997 0
    outer loop
      vertex 4.9 -4.75981 1.2
      vertex 5.05 -4.5 1
      vertex 5.05 -4.5 1.2
    endloop
  endfacet
  facet normal 0.866027 -0.499997 0
    outer loop
      vertex 5.05 -4.5 1
      vertex 4.9 -4.75981 1.2
      vertex 4.9 -4.75981 1
    endloop
  endfacet
  facet normal 0.866027 0.499997 0
    outer loop
      vertex 7.425 4.5 1.2
      vertex 7.275 4.75981 1
      vertex 7.275 4.75981 1.2
    endloop
  endfacet
  facet normal 0.866027 0.499997 0
    outer loop
      vertex 7.275 4.75981 1
      vertex 7.425 4.5 1.2
      vertex 7.425 4.5 1
    endloop
  endfacet
  facet normal -0.866027 -0.499997 0
    outer loop
      vertex 6.975 4.24019 1
      vertex 6.825 4.5 1.2
      vertex 6.825 4.5 1
    endloop
  endfacet
  facet normal -0.866027 -0.499997 0
    outer loop
      vertex 6.825 4.5 1.2
      vertex 6.975 4.24019 1
      vertex 6.975 4.24019 1.2
    endloop
  endfacet
  facet normal 0 1 -0
    outer loop
      vertex 7.275 4.75981 1
      vertex 6.975 4.75981 1.2
      vertex 7.275 4.75981 1.2
    endloop
  endfacet
  facet normal 0 1 0
    outer loop
      vertex 6.975 4.75981 1.2
      vertex 7.275 4.75981 1
      vertex 6.975 4.75981 1
    endloop
  endfacet
  facet normal 0 -1 0
    outer loop
      vertex 6.975 4.24019 1
      vertex 7.275 4.24019 1.2
      vertex 6.975 4.24019 1.2
    endloop
  endfacet
  facet normal 0 -1 -0
    outer loop
      vertex 7.275 4.24019 1.2
      vertex 6.975 4.24019 1
      vertex 7.275 4.24019 1
    endloop
  endfacet
  facet normal 0 0 1
    outer loop
      vertex 7.275 4.75981 1.2
      vertex 7.275 4.24019 1.2
      vertex 7.425 4.5 1.2
    endloop
  endfacet
  facet normal -0 0 1
    outer loop
      vertex 6.975 4.75981 1.2
      vertex 7.275 4.24019 1.2
      vertex 7.275 4.75981 1.2
    endloop
  endfacet
  facet normal 0 0 1
    outer loop
      vertex 6.975 4.75981 1.2
      vertex 6.975 4.24019 1.2
      vertex 7.275 4.24019 1.2
    endloop
  endfacet
  facet normal 0 -0 1
    outer loop
      vertex 6.975 4.24019 1.2
      vertex 6.975 4.75981 1.2
      vertex 6.825 4.5 1.2
    endloop
  endfacet
  facet normal -0.866027 0.499997 0
    outer loop
      vertex 6.825 4.5 1
      vertex 6.975 4.75981 1.2
      vertex 6.975 4.75981 1
    endloop
  endfacet
  facet normal -0.866027 0.499997 0
    outer loop
      vertex 6.975 4.75981 1.2
      vertex 6.825 4.5 1
      vertex 6.825 4.5 1.2
    endloop
  endfacet
  facet normal 0.866027 -0.499997 0
    outer loop
      vertex 7.275 4.24019 1.2
      vertex 7.425 4.5 1
      vertex 7.425 4.5 1.2
    endloop
  endfacet
  facet normal 0.866027 -0.499997 0
    outer loop
      vertex 7.425 4.5 1
      vertex 7.275 4.24019 1.2
      vertex 7.275 4.24019 1
    endloop
  endfacet
  facet normal 0.866027 0.499997 0
    outer loop
      vertex 7.425 -4.5 1.2
      vertex 7.275 -4.24019 1
      vertex 7.275 -4.24019 1.2
    endloop
  endfacet
  facet normal 0.866027 0.499997 0
    outer loop
      vertex 7.275 -4.24019 1
      vertex 7.425 -4.5 1.2
      vertex 7.425 -4.5 1
    endloop
  endfacet
  facet normal -0.866027 0.499997 0
    outer loop
      vertex 6.825 -4.5 1
      vertex 6.975 -4.24019 1.2
      vertex 6.975 -4.24019 1
    endloop
  endfacet
  facet normal -0.866027 0.499997 0
    outer loop
      vertex 6.975 -4.24019 1.2
      vertex 6.825 -4.5 1
      vertex 6.825 -4.5 1.2
    endloop
  endfacet
  facet normal 0 1 -0
    outer loop
      vertex 7.275 -4.24019 1
      vertex 6.975 -4.24019 1.2
      vertex 7.275 -4.24019 1.2
    endloop
  endfacet
  facet normal 0 1 0
    outer loop
      vertex 6.975 -4.24019 1.2
      vertex 7.275 -4.24019 1
      vertex 6.975 -4.24019 1
    endloop
  endfacet
  facet normal 0 0 1
    outer loop
      vertex 7.275 -4.24019 1.2
      vertex 7.275 -4.75981 1.2
      vertex 7.425 -4.5 1.2
    endloop
  endfacet
  facet normal -0 0 1
    outer loop
      vertex 6.975 -4.24019 1.2
      vertex 7.275 -4.75981 1.2
      vertex 7.275 -4.24019 1.2
    endloop
  endfacet
  facet normal 0 0 1
    outer loop
      vertex 6.975 -4.24019 1.2
      vertex 6.975 -4.75981 1.2
      vertex 7.275 -4.75981 1.2
    endloop
  endfacet
  facet normal 0 -0 1
    outer loop
      vertex 6.975 -4.75981 1.2
      vertex 6.975 -4.24019 1.2
      vertex 6.825 -4.5 1.2
    endloop
  endfacet
  facet normal 0.866027 -0.499997 0
    outer loop
      vertex 7.275 -4.75981 1.2
      vertex 7.425 -4.5 1
      vertex 7.425 -4.5 1.2
    endloop
  endfacet
  facet normal 0.866027 -0.499997 0
    outer loop
      vertex 7.425 -4.5 1
      vertex 7.275 -4.75981 1.2
      vertex 7.275 -4.75981 1
    endloop
  endfacet
  facet normal 0 -1 0
    outer loop
      vertex 6.975 -4.75981 1
      vertex 7.275 -4.75981 1.2
      vertex 6.975 -4.75981 1.2
    endloop
  endfacet
  facet normal 0 -1 -0
    outer loop
      vertex 7.275 -4.75981 1.2
      vertex 6.975 -4.75981 1
      vertex 7.275 -4.75981 1
    endloop
  endfacet
  facet normal -0.866027 -0.499997 0
    outer loop
      vertex 6.975 -4.75981 1
      vertex 6.825 -4.5 1.2
      vertex 6.825 -4.5 1
    endloop
  endfacet
  facet normal -0.866027 -0.499997 0
    outer loop
      vertex 6.825 -4.5 1.2
      vertex 6.975 -4.75981 1
      vertex 6.975 -4.75981 1.2
    endloop
  endfacet
  facet normal 0.866027 0.499997 0
    outer loop
      vertex 9.8 4.5 1.2
      vertex 9.65 4.75981 1
      vertex 9.65 4.75981 1.2
    endloop
  endfacet
  facet normal 0.866027 0.499997 0
    outer loop
      vertex 9.65 4.75981 1
      vertex 9.8 4.5 1.2
      vertex 9.8 4.5 1
    endloop
  endfacet
  facet normal 0 1 -0
    outer loop
      vertex 9.65 4.75981 1
      vertex 9.35 4.75981 1.2
      vertex 9.65 4.75981 1.2
    endloop
  endfacet
  facet normal 0 1 0
    outer loop
      vertex 9.35 4.75981 1.2
      vertex 9.65 4.75981 1
      vertex 9.35 4.75981 1
    endloop
  endfacet
  facet normal 0 -1 0
    outer loop
      vertex 9.35 4.24019 1
      vertex 9.65 4.24019 1.2
      vertex 9.35 4.24019 1.2
    endloop
  endfacet
  facet normal 0 -1 -0
    outer loop
      vertex 9.65 4.24019 1.2
      vertex 9.35 4.24019 1
      vertex 9.65 4.24019 1
    endloop
  endfacet
  facet normal 0 0 1
    outer loop
      vertex 9.65 4.75981 1.2
      vertex 9.65 4.24019 1.2
      vertex 9.8 4.5 1.2
    endloop
  endfacet
  facet normal -0 0 1
    outer loop
      vertex 9.35 4.75981 1.2
      vertex 9.65 4.24019 1.2
      vertex 9.65 4.75981 1.2
    endloop
  endfacet
  facet normal 0 0 1
    outer loop
      vertex 9.35 4.75981 1.2
      vertex 9.35 4.24019 1.2
      vertex 9.65 4.24019 1.2
    endloop
  endfacet
  facet normal 0 -0 1
    outer loop
      vertex 9.35 4.24019 1.2
      vertex 9.35 4.75981 1.2
      vertex 9.2 4.5 1.2
    endloop
  endfacet
  facet normal -0.866027 0.499997 0
    outer loop
      vertex 9.2 4.5 1
      vertex 9.35 4.75981 1.2
      vertex 9.35 4.75981 1
    endloop
  endfacet
  facet normal -0.866027 0.499997 0
    outer loop
      vertex 9.35 4.75981 1.2
      vertex 9.2 4.5 1
      vertex 9.2 4.5 1.2
    endloop
  endfacet
  facet normal 0.866027 -0.499997 0
    outer loop
      vertex 9.65 4.24019 1.2
      vertex 9.8 4.5 1
      vertex 9.8 4.5 1.2
    endloop
  endfacet
  facet normal 0.866027 -0.499997 0
    outer loop
      vertex 9.8 4.5 1
      vertex 9.65 4.24019 1.2
      vertex 9.65 4.24019 1
    endloop
  endfacet
  facet normal -0.866027 -0.499997 0
    outer loop
      vertex 9.35 4.24019 1
      vertex 9.2 4.5 1.2
      vertex 9.2 4.5 1
    endloop
  endfacet
  facet normal -0.866027 -0.499997 0
    outer loop
      vertex 9.2 4.5 1.2
      vertex 9.35 4.24019 1
      vertex 9.35 4.24019 1.2
    endloop
  endfacet
  facet normal 0.866027 0.499997 0
    outer loop
      vertex 9.8 -4.5 1.2
      vertex 9.65 -4.24019 1
      vertex 9.65 -4.24019 1.2
    endloop
  endfacet
  facet normal 0.866027 0.499997 0
    outer loop
      vertex 9.65 -4.24019 1
      vertex 9.8 -4.5 1.2
      vertex 9.8 -4.5 1
    endloop
  endfacet
  facet normal -0.866027 0.499997 0
    outer loop
      vertex 9.2 -4.5 1
      vertex 9.35 -4.24019 1.2
      vertex 9.35 -4.24019 1
    endloop
  endfacet
  facet normal -0.866027 0.499997 0
    outer loop
      vertex 9.35 -4.24019 1.2
      vertex 9.2 -4.5 1
      vertex 9.2 -4.5 1.2
    endloop
  endfacet
  facet normal 0 1 -0
    outer loop
      vertex 9.65 -4.24019 1
      vertex 9.35 -4.24019 1.2
      vertex 9.65 -4.24019 1.2
    endloop
  endfacet
  facet normal 0 1 0
    outer loop
      vertex 9.35 -4.24019 1.2
      vertex 9.65 -4.24019 1
      vertex 9.35 -4.24019 1
    endloop
  endfacet
  facet normal 0 0 1
    outer loop
      vertex 9.65 -4.24019 1.2
      vertex 9.65 -4.75981 1.2
      vertex 9.8 -4.5 1.2
    endloop
  endfacet
  facet normal -0 0 1
    outer loop
      vertex 9.35 -4.24019 1.2
      vertex 9.65 -4.75981 1.2
      vertex 9.65 -4.24019 1.2
    endloop
  endfacet
  facet normal 0 0 1
    outer loop
      vertex 9.35 -4.24019 1.2
      vertex 9.35 -4.75981 1.2
      vertex 9.65 -4.75981 1.2
    endloop
  endfacet
  facet normal 0 -0 1
    outer loop
      vertex 9.35 -4.75981 1.2
      vertex 9.35 -4.24019 1.2
      vertex 9.2 -4.5 1.2
    endloop
  endfacet
  facet normal 0 -1 0
    outer loop
      vertex 9.35 -4.75981 1
      vertex 9.65 -4.75981 1.2
      vertex 9.35 -4.75981 1.2
    endloop
  endfacet
  facet normal 0 -1 -0
    outer loop
      vertex 9.65 -4.75981 1.2
      vertex 9.35 -4.75981 1
      vertex 9.65 -4.75981 1
    endloop
  endfacet
  facet normal -0.866027 -0.499997 0
    outer loop
      vertex 9.35 -4.75981 1
      vertex 9.2 -4.5 1.2
      vertex 9.2 -4.5 1
    endloop
  endfacet
  facet normal -0.866027 -0.499997 0
    outer loop
      vertex 9.2 -4.5 1.2
      vertex 9.35 -4.75981 1
      vertex 9.35 -4.75981 1.2
    endloop
  endfacet
  facet normal 0.866027 -0.499997 0
    outer loop
      vertex 9.65 -4.75981 1.2
      vertex 9.8 -4.5 1
      vertex 9.8 -4.5 1.2
    endloop
  endfacet
  facet normal 0.866027 -0.499997 0
    outer loop
      vertex 9.8 -4.5 1
      vertex 9.65 -4.75981 1.2
      vertex 9.65 -4.75981 1
    endloop
  endfacet
  facet normal 0.866027 0.499997 0
    outer loop
      vertex -9.2 -4.5 1.2
      vertex -9.35 -4.24019 1
      vertex -9.35 -4.24019 1.2
    endloop
  endfacet
  facet normal 0.866027 0.499997 0
    outer loop
      vertex -9.35 -4.24019 1
      vertex -9.2 -4.5 1.2
      vertex -9.2 -4.5 1
    endloop
  endfacet
  facet normal 0.866027 -0.499997 0
    outer loop
      vertex -9.35 -4.75981 1.2
      vertex -9.2 -4.5 1
      vertex -9.2 -4.5 1.2
    endloop
  endfacet
  facet normal 0.866027 -0.499997 0
    outer loop
      vertex -9.2 -4.5 1
      vertex -9.35 -4.75981 1.2
      vertex -9.35 -4.75981 1
    endloop
  endfacet
  facet normal 0.866027 0.499997 0
    outer loop
      vertex 9.8 -2.25 1.2
      vertex 9.65 -1.99019 1
      vertex 9.65 -1.99019 1.2
    endloop
  endfacet
  facet normal 0.866027 0.499997 0
    outer loop
      vertex 9.65 -1.99019 1
      vertex 9.8 -2.25 1.2
      vertex 9.8 -2.25 1
    endloop
  endfacet
  facet normal 0 1 -0
    outer loop
      vertex 9.65 -1.99019 1
      vertex 9.35 -1.99019 1.2
      vertex 9.65 -1.99019 1.2
    endloop
  endfacet
  facet normal 0 1 0
    outer loop
      vertex 9.35 -1.99019 1.2
      vertex 9.65 -1.99019 1
      vertex 9.35 -1.99019 1
    endloop
  endfacet
  facet normal 0 -1 0
    outer loop
      vertex 9.35 -2.50981 1
      vertex 9.65 -2.50981 1.2
      vertex 9.35 -2.50981 1.2
    endloop
  endfacet
  facet normal 0 -1 -0
    outer loop
      vertex 9.65 -2.50981 1.2
      vertex 9.35 -2.50981 1
      vertex 9.65 -2.50981 1
    endloop
  endfacet
  facet normal 0 0 1
    outer loop
      vertex 9.65 -1.99019 1.2
      vertex 9.65 -2.50981 1.2
      vertex 9.8 -2.25 1.2
    endloop
  endfacet
  facet normal -0 0 1
    outer loop
      vertex 9.35 -1.99019 1.2
      vertex 9.65 -2.50981 1.2
      vertex 9.65 -1.99019 1.2
    endloop
  endfacet
  facet normal 0 0 1
    outer loop
      vertex 9.35 -1.99019 1.2
      vertex 9.35 -2.50981 1.2
      vertex 9.65 -2.50981 1.2
    endloop
  endfacet
  facet normal 0 -0 1
    outer loop
      vertex 9.35 -2.50981 1.2
      vertex 9.35 -1.99019 1.2
      vertex 9.2 -2.25 1.2
    endloop
  endfacet
  facet normal -0.866027 0.499997 0
    outer loop
      vertex 9.2 -2.25 1
      vertex 9.35 -1.99019 1.2
      vertex 9.35 -1.99019 1
    endloop
  endfacet
  facet normal -0.866027 0.499997 0
    outer loop
      vertex 9.35 -1.99019 1.2
      vertex 9.2 -2.25 1
      vertex 9.2 -2.25 1.2
    endloop
  endfacet
  facet normal 0.866027 -0.499997 0
    outer loop
      vertex 9.65 -2.50981 1.2
      vertex 9.8 -2.25 1
      vertex 9.8 -2.25 1.2
    endloop
  endfacet
  facet normal 0.866027 -0.499997 0
    outer loop
      vertex 9.8 -2.25 1
      vertex 9.65 -2.50981 1.2
      vertex 9.65 -2.50981 1
    endloop
  endfacet
  facet normal -0.866027 -0.499997 0
    outer loop
      vertex 9.35 -2.50981 1
      vertex 9.2 -2.25 1.2
      vertex 9.2 -2.25 1
    endloop
  endfacet
  facet normal -0.866027 -0.499997 0
    outer loop
      vertex 9.2 -2.25 1.2
      vertex 9.35 -2.50981 1
      vertex 9.35 -2.50981 1.2
    endloop
  endfacet
  facet normal 0.866027 0.499997 0
    outer loop
      vertex -9.2 -2.25 1.2
      vertex -9.35 -1.99019 1
      vertex -9.35 -1.99019 1.2
    endloop
  endfacet
  facet normal 0.866027 0.499997 0
    outer loop
      vertex -9.35 -1.99019 1
      vertex -9.2 -2.25 1.2
      vertex -9.2 -2.25 1
    endloop
  endfacet
  facet normal 0 1 -0
    outer loop
      vertex -9.35 -1.99019 1
      vertex -9.65 -1.99019 1.2
      vertex -9.35 -1.99019 1.2
    endloop
  endfacet
  facet normal 0 1 0
    outer loop
      vertex -9.65 -1.99019 1.2
      vertex -9.35 -1.99019 1
      vertex -9.65 -1.99019 1
    endloop
  endfacet
  facet normal 0 -1 0
    outer loop
      vertex -9.65 -2.50981 1
      vertex -9.35 -2.50981 1.2
      vertex -9.65 -2.50981 1.2
    endloop
  endfacet
  facet normal 0 -1 -0
    outer loop
      vertex -9.35 -2.50981 1.2
      vertex -9.65 -2.50981 1
      vertex -9.35 -2.50981 1
    endloop
  endfacet
  facet normal 0 0 1
    outer loop
      vertex -9.35 -1.99019 1.2
      vertex -9.35 -2.50981 1.2
      vertex -9.2 -2.25 1.2
    endloop
  endfacet
  facet normal -0 0 1
    outer loop
      vertex -9.65 -1.99019 1.2
      vertex -9.35 -2.50981 1.2
      vertex -9.35 -1.99019 1.2
    endloop
  endfacet
  facet normal 0 0 1
    outer loop
      vertex -9.65 -1.99019 1.2
      vertex -9.65 -2.50981 1.2
      vertex -9.35 -2.50981 1.2
    endloop
  endfacet
  facet normal 0 -0 1
    outer loop
      vertex -9.65 -2.50981 1.2
      vertex -9.65 -1.99019 1.2
      vertex -9.8 -2.25 1.2
    endloop
  endfacet
  facet normal -0.866027 0.499997 0
    outer loop
      vertex -9.8 -2.25 1
      vertex -9.65 -1.99019 1.2
      vertex -9.65 -1.99019 1
    endloop
  endfacet
  facet normal -0.866027 0.499997 0
    outer loop
      vertex -9.65 -1.99019 1.2
      vertex -9.8 -2.25 1
      vertex -9.8 -2.25 1.2
    endloop
  endfacet
  facet normal 0.866027 -0.499997 0
    outer loop
      vertex -9.35 -2.50981 1.2
      vertex -9.2 -2.25 1
      vertex -9.2 -2.25 1.2
    endloop
  endfacet
  facet normal 0.866027 -0.499997 0
    outer loop
      vertex -9.2 -2.25 1
      vertex -9.35 -2.50981 1.2
      vertex -9.35 -2.50981 1
    endloop
  endfacet
  facet normal -0.866027 -0.499997 0
    outer loop
      vertex -9.65 -2.50981 1
      vertex -9.8 -2.25 1.2
      vertex -9.8 -2.25 1
    endloop
  endfacet
  facet normal -0.866027 -0.499997 0
    outer loop
      vertex -9.8 -2.25 1.2
      vertex -9.65 -2.50981 1
      vertex -9.65 -2.50981 1.2
    endloop
  endfacet
  facet normal 0.866026 0.499999 0
    outer loop
      vertex 9.8 0 1.2
      vertex 9.65 0.259808 1
      vertex 9.65 0.259808 1.2
    endloop
  endfacet
  facet normal 0.866026 0.499999 0
    outer loop
      vertex 9.65 0.259808 1
      vertex 9.8 0 1.2
      vertex 9.8 0 1
    endloop
  endfacet
  facet normal -0.866027 -0.499998 0
    outer loop
      vertex 9.35 -0.259809 1
      vertex 9.2 0 1.2
      vertex 9.2 0 1
    endloop
  endfacet
  facet normal -0.866027 -0.499998 0
    outer loop
      vertex 9.2 0 1.2
      vertex 9.35 -0.259809 1
      vertex 9.35 -0.259809 1.2
    endloop
  endfacet
  facet normal 0 1 -0
    outer loop
      vertex 9.65 0.259808 1
      vertex 9.35 0.259808 1.2
      vertex 9.65 0.259808 1.2
    endloop
  endfacet
  facet normal 0 1 0
    outer loop
      vertex 9.35 0.259808 1.2
      vertex 9.65 0.259808 1
      vertex 9.35 0.259808 1
    endloop
  endfacet
  facet normal 0 -1 0
    outer loop
      vertex 9.35 -0.259809 1
      vertex 9.65 -0.259809 1.2
      vertex 9.35 -0.259809 1.2
    endloop
  endfacet
  facet normal 0 -1 -0
    outer loop
      vertex 9.65 -0.259809 1.2
      vertex 9.35 -0.259809 1
      vertex 9.65 -0.259809 1
    endloop
  endfacet
  facet normal 0 0 1
    outer loop
      vertex 9.65 0.259808 1.2
      vertex 9.65 -0.259809 1.2
      vertex 9.8 0 1.2
    endloop
  endfacet
  facet normal -0 0 1
    outer loop
      vertex 9.35 0.259808 1.2
      vertex 9.65 -0.259809 1.2
      vertex 9.65 0.259808 1.2
    endloop
  endfacet
  facet normal 0 0 1
    outer loop
      vertex 9.35 0.259808 1.2
      vertex 9.35 -0.259809 1.2
      vertex 9.65 -0.259809 1.2
    endloop
  endfacet
  facet normal 0 -0 1
    outer loop
      vertex 9.35 -0.259809 1.2
      vertex 9.35 0.259808 1.2
      vertex 9.2 0 1.2
    endloop
  endfacet
  facet normal -0.866026 0.499999 0
    outer loop
      vertex 9.2 0 1
      vertex 9.35 0.259808 1.2
      vertex 9.35 0.259808 1
    endloop
  endfacet
  facet normal -0.866026 0.499999 0
    outer loop
      vertex 9.35 0.259808 1.2
      vertex 9.2 0 1
      vertex 9.2 0 1.2
    endloop
  endfacet
  facet normal 0.866027 -0.499998 0
    outer loop
      vertex 9.65 -0.259809 1.2
      vertex 9.8 0 1
      vertex 9.8 0 1.2
    endloop
  endfacet
  facet normal 0.866027 -0.499998 0
    outer loop
      vertex 9.8 0 1
      vertex 9.65 -0.259809 1.2
      vertex 9.65 -0.259809 1
    endloop
  endfacet
  facet normal 0.866026 0.499999 0
    outer loop
      vertex -9.2 0 1.2
      vertex -9.35 0.259808 1
      vertex -9.35 0.259808 1.2
    endloop
  endfacet
  facet normal 0.866026 0.499999 0
    outer loop
      vertex -9.35 0.259808 1
      vertex -9.2 0 1.2
      vertex -9.2 0 1
    endloop
  endfacet
  facet normal 0 1 -0
    outer loop
      vertex -9.35 0.259808 1
      vertex -9.65 0.259808 1.2
      vertex -9.35 0.259808 1.2
    endloop
  endfacet
  facet normal 0 1 0
    outer loop
      vertex -9.65 0.259808 1.2
      vertex -9.35 0.259808 1
      vertex -9.65 0.259808 1
    endloop
  endfacet
  facet normal 0 -1 0
    outer loop
      vertex -9.65 -0.259809 1
      vertex -9.35 -0.259809 1.2
      vertex -9.65 -0.259809 1.2
    endloop
  endfacet
  facet normal 0 -1 -0
    outer loop
      vertex -9.35 -0.259809 1.2
      vertex -9.65 -0.259809 1
      vertex -9.35 -0.259809 1
    endloop
  endfacet
  facet normal 0 0 1
    outer loop
      vertex -9.35 0.259808 1.2
      vertex -9.35 -0.259809 1.2
      vertex -9.2 0 1.2
    endloop
  endfacet
  facet normal -0 0 1
    outer loop
      vertex -9.65 0.259808 1.2
      vertex -9.35 -0.259809 1.2
      vertex -9.35 0.259808 1.2
    endloop
  endfacet
  facet normal 0 0 1
    outer loop
      vertex -9.65 0.259808 1.2
      vertex -9.65 -0.259809 1.2
      vertex -9.35 -0.259809 1.2
    endloop
  endfacet
  facet normal 0 -0 1
    outer loop
      vertex -9.65 -0.259809 1.2
      vertex -9.65 0.259808 1.2
      vertex -9.8 0 1.2
    endloop
  endfacet
  facet normal -0.866026 0.499999 0
    outer loop
      vertex -9.8 0 1
      vertex -9.65 0.259808 1.2
      vertex -9.65 0.259808 1
    endloop
  endfacet
  facet normal -0.866026 0.499999 0
    outer loop
      vertex -9.65 0.259808 1.2
      vertex -9.8 0 1
      vertex -9.8 0 1.2
    endloop
  endfacet
  facet normal 0.866027 -0.499998 0
    outer loop
      vertex -9.35 -0.259809 1.2
      vertex -9.2 0 1
      vertex -9.2 0 1.2
    endloop
  endfacet
  facet normal 0.866027 -0.499998 0
    outer loop
      vertex -9.2 0 1
      vertex -9.35 -0.259809 1.2
      vertex -9.35 -0.259809 1
    endloop
  endfacet
  facet normal -0.866027 -0.499998 0
    outer loop
      vertex -9.65 -0.259809 1
      vertex -9.8 0 1.2
      vertex -9.8 0 1
    endloop
  endfacet
  facet normal -0.866027 -0.499998 0
    outer loop
      vertex -9.8 0 1.2
      vertex -9.65 -0.259809 1
      vertex -9.65 -0.259809 1.2
    endloop
  endfacet
  facet normal 0.866027 0.499997 0
    outer loop
      vertex 9.8 2.25 1.2
      vertex 9.65 2.50981 1
      vertex 9.65 2.50981 1.2
    endloop
  endfacet
  facet normal 0.866027 0.499997 0
    outer loop
      vertex 9.65 2.50981 1
      vertex 9.8 2.25 1.2
      vertex 9.8 2.25 1
    endloop
  endfacet
  facet normal -0.866027 -0.499997 0
    outer loop
      vertex 9.35 1.99019 1
      vertex 9.2 2.25 1.2
      vertex 9.2 2.25 1
    endloop
  endfacet
  facet normal -0.866027 -0.499997 0
    outer loop
      vertex 9.2 2.25 1.2
      vertex 9.35 1.99019 1
      vertex 9.35 1.99019 1.2
    endloop
  endfacet
  facet normal 0 1 -0
    outer loop
      vertex 9.65 2.50981 1
      vertex 9.35 2.50981 1.2
      vertex 9.65 2.50981 1.2
    endloop
  endfacet
  facet normal 0 1 0
    outer loop
      vertex 9.35 2.50981 1.2
      vertex 9.65 2.50981 1
      vertex 9.35 2.50981 1
    endloop
  endfacet
  facet normal 0 -1 0
    outer loop
      vertex 9.35 1.99019 1
      vertex 9.65 1.99019 1.2
      vertex 9.35 1.99019 1.2
    endloop
  endfacet
  facet normal 0 -1 -0
    outer loop
      vertex 9.65 1.99019 1.2
      vertex 9.35 1.99019 1
      vertex 9.65 1.99019 1
    endloop
  endfacet
  facet normal 0 0 1
    outer loop
      vertex 9.65 2.50981 1.2
      vertex 9.65 1.99019 1.2
      vertex 9.8 2.25 1.2
    endloop
  endfacet
  facet normal -0 0 1
    outer loop
      vertex 9.35 2.50981 1.2
      vertex 9.65 1.99019 1.2
      vertex 9.65 2.50981 1.2
    endloop
  endfacet
  facet normal 0 0 1
    outer loop
      vertex 9.35 2.50981 1.2
      vertex 9.35 1.99019 1.2
      vertex 9.65 1.99019 1.2
    endloop
  endfacet
  facet normal 0 -0 1
    outer loop
      vertex 9.35 1.99019 1.2
      vertex 9.35 2.50981 1.2
      vertex 9.2 2.25 1.2
    endloop
  endfacet
  facet normal -0.866027 0.499997 0
    outer loop
      vertex 9.2 2.25 1
      vertex 9.35 2.50981 1.2
      vertex 9.35 2.50981 1
    endloop
  endfacet
  facet normal -0.866027 0.499997 0
    outer loop
      vertex 9.35 2.50981 1.2
      vertex 9.2 2.25 1
      vertex 9.2 2.25 1.2
    endloop
  endfacet
  facet normal 0.866027 -0.499997 0
    outer loop
      vertex 9.65 1.99019 1.2
      vertex 9.8 2.25 1
      vertex 9.8 2.25 1.2
    endloop
  endfacet
  facet normal 0.866027 -0.499997 0
    outer loop
      vertex 9.8 2.25 1
      vertex 9.65 1.99019 1.2
      vertex 9.65 1.99019 1
    endloop
  endfacet
  facet normal 0.866027 0.499997 0
    outer loop
      vertex -9.2 2.25 1.2
      vertex -9.35 2.50981 1
      vertex -9.35 2.50981 1.2
    endloop
  endfacet
  facet normal 0.866027 0.499997 0
    outer loop
      vertex -9.35 2.50981 1
      vertex -9.2 2.25 1.2
      vertex -9.2 2.25 1
    endloop
  endfacet
  facet normal 0 1 -0
    outer loop
      vertex -9.35 2.50981 1
      vertex -9.65 2.50981 1.2
      vertex -9.35 2.50981 1.2
    endloop
  endfacet
  facet normal 0 1 0
    outer loop
      vertex -9.65 2.50981 1.2
      vertex -9.35 2.50981 1
      vertex -9.65 2.50981 1
    endloop
  endfacet
  facet normal 0 -1 0
    outer loop
      vertex -9.65 1.99019 1
      vertex -9.35 1.99019 1.2
      vertex -9.65 1.99019 1.2
    endloop
  endfacet
  facet normal 0 -1 -0
    outer loop
      vertex -9.35 1.99019 1.2
      vertex -9.65 1.99019 1
      vertex -9.35 1.99019 1
    endloop
  endfacet
  facet normal 0 0 1
    outer loop
      vertex -9.35 2.50981 1.2
      vertex -9.35 1.99019 1.2
      vertex -9.2 2.25 1.2
    endloop
  endfacet
  facet normal -0 0 1
    outer loop
      vertex -9.65 2.50981 1.2
      vertex -9.35 1.99019 1.2
      vertex -9.35 2.50981 1.2
    endloop
  endfacet
  facet normal 0 0 1
    outer loop
      vertex -9.65 2.50981 1.2
      vertex -9.65 1.99019 1.2
      vertex -9.35 1.99019 1.2
    endloop
  endfacet
  facet normal 0 -0 1
    outer loop
      vertex -9.65 1.99019 1.2
      vertex -9.65 2.50981 1.2
      vertex -9.8 2.25 1.2
    endloop
  endfacet
  facet normal -0.866027 0.499997 0
    outer loop
      vertex -9.8 2.25 1
      vertex -9.65 2.50981 1.2
      vertex -9.65 2.50981 1
    endloop
  endfacet
  facet normal -0.866027 0.499997 0
    outer loop
      vertex -9.65 2.50981 1.2
      vertex -9.8 2.25 1
      vertex -9.8 2.25 1.2
    endloop
  endfacet
  facet normal 0.866027 -0.499997 0
    outer loop
      vertex -9.35 1.99019 1.2
      vertex -9.2 2.25 1
      vertex -9.2 2.25 1.2
    endloop
  endfacet
  facet normal 0.866027 -0.499997 0
    outer loop
      vertex -9.2 2.25 1
      vertex -9.35 1.99019 1.2
      vertex -9.35 1.99019 1
    endloop
  endfacet
  facet normal -0.866027 -0.499997 0
    outer loop
      vertex -9.65 1.99019 1
      vertex -9.8 2.25 1.2
      vertex -9.8 2.25 1
    endloop
  endfacet
  facet normal -0.866027 -0.499997 0
    outer loop
      vertex -9.8 2.25 1.2
      vertex -9.65 1.99019 1
      vertex -9.65 1.99019 1.2
    endloop
  endfacet
  facet normal 0.866027 0.499997 0
    outer loop
      vertex -9.2 4.5 1.2
      vertex -9.35 4.75981 1
      vertex -9.35 4.75981 1.2
    endloop
  endfacet
  facet normal 0.866027 0.499997 0
    outer loop
      vertex -9.35 4.75981 1
      vertex -9.2 4.5 1.2
      vertex -9.2 4.5 1
    endloop
  endfacet
  facet normal 0.866027 -0.499997 0
    outer loop
      vertex -9.35 4.24019 1.2
      vertex -9.2 4.5 1
      vertex -9.2 4.5 1.2
    endloop
  endfacet
  facet normal 0.866027 -0.499997 0
    outer loop
      vertex -9.2 4.5 1
      vertex -9.35 4.24019 1.2
      vertex -9.35 4.24019 1
    endloop
  endfacet
endsolid OpenSCAD_Model
